%FSTAX23Y23*%
%MOIN*%
%SFA1B1*%

%IPPOS*%
%ADD10C,0.059060*%
%ADD11C,0.078740*%
%ADD12R,0.066930X0.066930*%
%ADD13O,0.066930X0.110240*%
%ADD15R,0.066930X0.157480*%
%LNarduino-uno-shield-v2-1*%
%LPD*%
G54D10*
X0164Y018D02*
Y02D01*
X012Y001D02*
Y003D01*
X013Y001D02*
Y003D01*
X014Y001D02*
Y003D01*
X015Y001D02*
Y003D01*
X016Y001D02*
Y003D01*
X017Y001D02*
Y003D01*
X018Y001D02*
Y003D01*
X02Y001D02*
Y003D01*
X021Y001D02*
Y003D01*
X022Y001D02*
Y003D01*
X023Y001D02*
Y003D01*
X024Y001D02*
Y003D01*
X011Y001D02*
Y003D01*
X024Y018D02*
Y02D01*
X023Y018D02*
Y02D01*
X022Y018D02*
Y02D01*
X021Y018D02*
Y02D01*
X02Y018D02*
Y02D01*
X019Y018D02*
Y02D01*
X018Y018D02*
Y02D01*
X0154Y018D02*
Y02D01*
X0144Y018D02*
Y02D01*
X0134Y018D02*
Y02D01*
X0124Y018D02*
Y02D01*
X0114Y018D02*
Y02D01*
X0104Y018D02*
Y02D01*
X0094Y018D02*
Y02D01*
X0084Y018D02*
Y02D01*
X0074Y018D02*
Y02D01*
X025Y018D02*
Y02D01*
G54D11*
X02605Y00998D03*
X02505D03*
X02605Y01098D03*
X02505D03*
X02605Y01198D03*
X02505D03*
G54D12*
X001Y001D03*
X002D03*
X003D03*
X004D03*
X007D03*
X008D03*
X009D03*
X01D03*
X001Y002D03*
X002D03*
X003D03*
X004D03*
X005D03*
X006D03*
X007D03*
X008D03*
X009D03*
X01D03*
Y003D03*
X009D03*
X008D03*
X007D03*
X006D03*
X005D03*
X004D03*
X003D03*
X002D03*
X001D03*
X006Y017D03*
X007D03*
X008D03*
X009D03*
X01D03*
X011D03*
X012D03*
X013D03*
X014D03*
X015D03*
X025D03*
X024D03*
X023D03*
X022D03*
X021D03*
X02D03*
X019D03*
X018D03*
X017D03*
X016D03*
Y016D03*
X017D03*
X018D03*
X019D03*
X02D03*
X021D03*
X022D03*
X023D03*
X024D03*
X025D03*
X015D03*
X014D03*
X013D03*
X012D03*
X011D03*
X01D03*
X009D03*
X008D03*
X007D03*
X006D03*
X026Y015D03*
X025D03*
X024D03*
X023D03*
X022D03*
X021D03*
X02D03*
X019D03*
X018D03*
X017D03*
X007D03*
X008D03*
X009D03*
X01D03*
X011D03*
X012D03*
X013D03*
X014D03*
X015D03*
X016D03*
Y014D03*
X017D03*
X018D03*
X019D03*
X02D03*
X021D03*
X022D03*
X023D03*
X024D03*
X025D03*
X015D03*
X014D03*
X013D03*
X012D03*
X011D03*
X01D03*
X009D03*
X008D03*
X007D03*
X006D03*
X026Y013D03*
X025D03*
X024D03*
X023D03*
X022D03*
X021D03*
X02D03*
X019D03*
X018D03*
X017D03*
X007D03*
X008D03*
X009D03*
X01D03*
X011D03*
X012D03*
X013D03*
X014D03*
X015D03*
X016D03*
X015Y012D03*
X016D03*
X017D03*
X018D03*
X019D03*
X02D03*
X021D03*
X022D03*
X023D03*
X024D03*
X014D03*
X013D03*
X012D03*
X011D03*
X01D03*
X009D03*
X008D03*
X007D03*
X006D03*
X005D03*
X024Y011D03*
X023D03*
X022D03*
X021D03*
X02D03*
X019D03*
X018D03*
X017D03*
X016D03*
X015D03*
X005D03*
X006D03*
X007D03*
X008D03*
X009D03*
X01D03*
X011D03*
X012D03*
X013D03*
X014D03*
X015Y01D03*
X016D03*
X017D03*
X018D03*
X019D03*
X02D03*
X021D03*
X022D03*
X023D03*
X024D03*
X014D03*
X013D03*
X012D03*
X011D03*
X01D03*
X009D03*
X008D03*
X007D03*
X006D03*
X005D03*
X026Y009D03*
X025D03*
X024D03*
X023D03*
X022D03*
X021D03*
X02D03*
X019D03*
X018D03*
X017D03*
X007D03*
X008D03*
X009D03*
X01D03*
X011D03*
X012D03*
X013D03*
X014D03*
X015D03*
X016D03*
X017Y008D03*
X018D03*
X019D03*
X02D03*
X021D03*
X022D03*
X023D03*
X024D03*
X025D03*
X026D03*
X016D03*
X015D03*
X014D03*
X013D03*
X012D03*
X011D03*
X01D03*
X009D03*
X008D03*
X007D03*
X026Y007D03*
X025D03*
X024D03*
X023D03*
X022D03*
X021D03*
X02D03*
X019D03*
X018D03*
X017D03*
X007D03*
X008D03*
X009D03*
X01D03*
X011D03*
X012D03*
X013D03*
X014D03*
X015D03*
X016D03*
X017Y006D03*
X018D03*
X019D03*
X02D03*
X021D03*
X022D03*
X023D03*
X024D03*
X025D03*
X026D03*
X016D03*
X015D03*
X014D03*
X013D03*
X012D03*
X011D03*
X01D03*
X009D03*
X008D03*
X007D03*
X026Y005D03*
X025D03*
X024D03*
X023D03*
X022D03*
X021D03*
X02D03*
X019D03*
X018D03*
X017D03*
X007D03*
X008D03*
X009D03*
X01D03*
X011D03*
X012D03*
X013D03*
X014D03*
X015D03*
X016D03*
Y004D03*
X015D03*
X014D03*
X013D03*
X012D03*
X011D03*
X01D03*
X009D03*
X008D03*
X007D03*
X017D03*
X018D03*
X019D03*
X02D03*
X021D03*
X022D03*
X023D03*
X024D03*
X025D03*
X026D03*
X006D03*
X005D03*
X004D03*
X003D03*
X002D03*
X001D03*
Y009D03*
X002D03*
X003D03*
X004D03*
X005D03*
X006D03*
Y008D03*
X005D03*
X004D03*
X003D03*
X002D03*
X001D03*
Y007D03*
X002D03*
X003D03*
X004D03*
X005D03*
X006D03*
Y006D03*
X005D03*
X004D03*
X003D03*
X002D03*
X001D03*
Y005D03*
X002D03*
X003D03*
X004D03*
X005D03*
X006D03*
Y013D03*
X005D03*
X004D03*
X003D03*
X002D03*
X001D03*
Y015D03*
X002D03*
X003D03*
X004D03*
X005D03*
X006D03*
Y018D03*
X005D03*
X004D03*
X003D03*
X002D03*
X001D03*
Y019D03*
X002D03*
X003D03*
X004D03*
X005D03*
X006D03*
X004Y011D03*
X003D03*
X002D03*
X001D03*
X004Y01D03*
X003D03*
X002D03*
X001D03*
X004Y012D03*
X003D03*
X002D03*
X001D03*
Y014D03*
X002D03*
X003D03*
X004D03*
X005D03*
Y016D03*
X004D03*
X003D03*
X002D03*
X001D03*
Y017D03*
X002D03*
X003D03*
X004D03*
X005D03*
Y02D03*
X004D03*
X003D03*
X002D03*
X001D03*
G54D13*
X016Y00288D03*
X017D03*
X011D03*
X018D03*
X014D03*
X013D03*
X012D03*
X015D03*
Y00088D03*
X012D03*
X013D03*
X014D03*
X018D03*
X011D03*
X017D03*
X016D03*
X022Y01811D03*
X019D03*
X02D03*
X021D03*
X025D03*
X018D03*
X024D03*
X023D03*
Y02011D03*
X024D03*
X018D03*
X025D03*
X021D03*
X02D03*
X019D03*
X022D03*
X0074Y01811D03*
X0084D03*
X0094D03*
X0104D03*
X0114D03*
X0124D03*
X0134D03*
X0144D03*
X0154D03*
X0164D03*
Y02011D03*
X0154D03*
X0144D03*
X0134D03*
X0124D03*
X0114D03*
X0104D03*
X0094D03*
X0084D03*
X0074D03*
X025Y00088D03*
X024D03*
X023D03*
X022D03*
X021D03*
X02D03*
Y00288D03*
X021D03*
X022D03*
X023D03*
X024D03*
X025D03*
G54D15*
X011Y00192D03*
G54D10*
X025Y00108D02*
Y00308D01*
M02*