%FSTAX23Y23*%
%MOIN*%
%SFA1B1*%

%IPPOS*%
%ADD16C,0.010000*%
%ADD17C,0.007870*%
%ADD18C,0.005910*%
%ADD19C,0.005000*%
%ADD20C,0.005120*%
%LNarduino-uno-shield-v2-1*%
%LPD*%
G54D16*
X02555Y01148D02*
Y01248D01*
X02455Y01148D02*
X02555D01*
X02455Y00948D02*
X02655D01*
Y01248*
X0248D02*
X02655D01*
X02455Y01223D02*
X0248Y01248D01*
X02455Y00948D02*
Y01223D01*
X0245Y0175D02*
Y02075D01*
X0235Y0175D02*
Y02075D01*
X0225Y0175D02*
Y02075D01*
X0215Y0175D02*
Y02075D01*
X0205Y0175D02*
Y02075D01*
X0195Y0175D02*
Y02075D01*
X0185Y0175D02*
Y02075D01*
X0175Y0175D02*
Y0205D01*
X0159Y0175D02*
Y02075D01*
X0149Y0175D02*
Y02075D01*
X0139Y0175D02*
Y02075D01*
X0129Y0175D02*
Y02075D01*
X0119Y0175D02*
Y02075D01*
X0109Y0175D02*
Y02075D01*
X0099Y0175D02*
Y02075D01*
X0089Y0175D02*
Y02075D01*
X0079Y0175D02*
Y02075D01*
X0069Y0175D02*
Y0205D01*
X0115Y00025D02*
Y0035D01*
X0125Y00025D02*
Y0035D01*
X0135Y00025D02*
Y0035D01*
X0145Y00025D02*
Y0035D01*
X0155Y00025D02*
Y0035D01*
X0165Y00025D02*
Y0035D01*
X0175Y00025D02*
Y0035D01*
X0185Y0005D02*
Y0035D01*
X0195Y0005D02*
Y0035D01*
X0205Y00025D02*
Y0035D01*
X0215Y00025D02*
Y0035D01*
X0225Y00025D02*
Y0035D01*
X0235Y00025D02*
Y0035D01*
X0245Y00025D02*
Y0035D01*
X0255Y0005D02*
Y0035D01*
X0105D02*
X0185D01*
Y00025D02*
Y0015D01*
X0105Y00025D02*
X0185D01*
X0175Y0175D02*
Y01875D01*
Y0175D02*
X0255D01*
Y01875*
X0175Y02075D02*
X0255D01*
X0175Y0195D02*
Y02075D01*
X0069Y0175D02*
Y01875D01*
X0169Y0175D02*
Y01875D01*
X0159Y0175D02*
X0169D01*
X0069D02*
X0159D01*
X0069Y02075D02*
X01615D01*
X0169*
X0069Y0195D02*
Y02075D01*
X0255Y0005D02*
Y0015D01*
Y00025D02*
Y0005D01*
X02Y00025D02*
X0255D01*
X0195D02*
X02D01*
X0195D02*
Y001D01*
Y00225D02*
Y003D01*
X0205Y0035D02*
X0255D01*
X0195D02*
X0205D01*
X0195Y003D02*
Y0035D01*
G54D17*
X0025Y00055D02*
Y0205D01*
X02625Y002D02*
X02585D01*
X02565Y0018*
X02585Y0016*
X02625*
X02595*
Y002*
X02565Y0014D02*
X02625D01*
Y00111*
X02615Y00101*
X02575*
X02565Y00111*
Y0014*
G54D18*
X02523Y0194D02*
X02517Y01934D01*
X0252Y01937*
X0254Y01918*
X02543Y01921*
X02536Y01914*
X02497D02*
X02504Y01921D01*
X0251*
X02523Y01908*
Y01901*
X02517Y01895*
X0251*
X02497Y01908*
Y01914*
X02491Y01901D02*
X02484D01*
X02478Y01895*
Y01888*
X02491Y01875*
X02497*
X02504Y01882*
Y01888*
X02491Y01901*
X02417Y01932D02*
X02411Y01926D01*
X02414Y01929*
X02433Y0191*
X02437Y01913*
X0243Y01906*
X02391D02*
X02398Y01913D01*
X02404*
X02417Y019*
Y01893*
X02411Y01887*
X02404*
X02391Y019*
Y01906*
X02401Y01877D02*
X02394Y01871D01*
X02398Y01874*
X02378Y01893*
X02385*
X02316Y01951D02*
X02308Y01943D01*
X02312Y01947*
X02334Y01925*
X02338Y01929*
X02331Y01921*
X02286D02*
X02294Y01929D01*
X02301*
X02316Y01914*
Y01906*
X02308Y01899*
X02301*
X02286Y01914*
Y01921*
X02282Y01873D02*
X02297Y01888D01*
X02268*
X02264Y01892*
Y01899*
X02271Y01906*
X02279*
X02111Y01947D02*
X02104Y0194D01*
X02107Y01943*
X0213Y01921*
X02133Y01925*
X02126Y01917*
X02081D02*
X02089Y01925D01*
X02096*
X02111Y0191*
Y01902*
X02104Y01895*
X02096*
X02081Y0191*
Y01917*
Y01873D02*
X02059Y01895D01*
X02081*
X02067Y0188*
X01816Y01943D02*
X01808Y01936D01*
X01812Y01939*
X01834Y01917*
X01838Y01921*
X01831Y01913*
X01786D02*
X01794Y01921D01*
X01801*
X01816Y01906*
Y01899*
X01808Y01891*
X01801*
X01786Y01906*
Y01913*
X01775Y01902D02*
X0176Y01887D01*
X01764Y01884*
X01794*
X01797Y0188*
X01654Y01947D02*
X01647Y0194D01*
X01651Y01943*
X01673Y01921*
X01677Y01925*
X01669Y01917*
X01625D02*
X01632Y01925D01*
X0164*
X01654Y0191*
Y01902*
X01647Y01895*
X0164*
X01625Y0191*
Y01917*
X01617Y01902D02*
X0161D01*
X01602Y01895*
Y01888*
X01606Y01884*
X01614*
Y01876*
X01617Y01873*
X01625*
X01632Y0188*
Y01888*
X01628Y01891*
X01621*
Y01899*
X01617Y01902*
X01621Y01891D02*
X01614Y01884D01*
X00844Y01936D02*
Y01944D01*
X00851Y01951*
X00859*
X00863Y01947*
Y0194*
X00855Y01933*
Y01925*
X00859Y01921*
X00866*
X00874Y01929*
Y01936*
X00833Y01933D02*
X00855Y0191D01*
X00844Y01899*
X00837*
X00822Y01914*
Y01921*
X00833Y01933*
Y01888D02*
X00818Y01903D01*
X00803*
Y01888*
X00818Y01873*
X00807Y01884*
X00822Y01899*
X00741Y01932D02*
Y0194D01*
X00749Y01947*
X00756*
X0076Y01943*
Y01936*
X00752Y01929*
Y01921*
X00756Y01918*
X00763*
X00771Y01925*
Y01932*
X00719Y0191D02*
Y01918D01*
X00726Y01925*
X00734*
X00749Y0191*
Y01903*
X00741Y01895*
X00734*
X00708Y01906D02*
X0073Y01884D01*
X00715Y01869*
X02551Y01725D02*
Y01714D01*
Y01719*
X02582*
Y01725*
Y01714*
X02551Y01683D02*
Y01693D01*
X02556Y01698*
X02577*
X02582Y01693*
Y01683*
X02577Y01677*
X02556*
X02551Y01683*
Y01667D02*
X02582D01*
Y01646*
X02657Y00925D02*
Y00915D01*
Y0092*
X02685*
Y00925*
Y00915*
X02662Y00883D02*
X02657Y00888D01*
Y00897*
X02662Y00902*
X0268*
X02685Y00897*
Y00888*
X0268Y00883*
X02662Y00856D02*
X02657Y0086D01*
Y00869*
X02662Y00874*
X02666*
X02671Y00869*
Y0086*
X02675Y00856*
X0268*
X02685Y0086*
Y00869*
X0268Y00874*
X02685Y00846D02*
X02657D01*
Y00833*
X02662Y00828*
X02671*
X02675Y00833*
Y00846*
X019Y00259D02*
X01864D01*
Y00242*
X0187Y00236*
X01882*
X01888Y00242*
Y00259*
X01864Y00206D02*
Y00218D01*
X0187Y00224*
X01894*
X019Y00218*
Y00206*
X01894Y002*
X0187*
X01864Y00206*
Y00189D02*
X019D01*
X01888Y00177*
X019Y00165*
X01864*
Y00129D02*
Y00153D01*
X019*
Y00129*
X01882Y00153D02*
Y00141D01*
X019Y00118D02*
X01864D01*
Y001*
X0187Y00094*
X01882*
X01888Y001*
Y00118*
Y00106D02*
X019Y00094D01*
X01422Y00223D02*
X01414D01*
X01407Y00215*
Y00208*
X01411Y00204*
X01418*
X01422Y00208*
X01418Y00204*
Y00197*
X01422Y00193*
X01429*
X01437Y00201*
Y00208*
X01403Y00197D02*
X01411Y00175D01*
X01389Y00182*
X01377Y00178D02*
X0137D01*
X01363Y00171*
Y00163*
X01366Y0016*
X01374*
X01377Y00163*
X01374Y0016*
Y00152*
X01377Y00149*
X01385*
X01392Y00156*
Y00163*
X01489Y00202D02*
X01507Y0022D01*
X01521Y00206*
X01507Y00202*
X01502Y00197*
Y00188*
X01512Y00179*
X01521*
X0153Y00188*
Y00197*
X01489Y00183D02*
X01498Y00155D01*
X0147Y00165*
X01814Y00223D02*
X01829Y00208D01*
Y00193*
X01814*
X01799Y00208*
X01814Y00178D02*
X01806Y00171D01*
X0181Y00174*
X01795Y00189*
X01799Y00193*
X01795Y00159D02*
X0178Y00174D01*
X01769Y00163*
Y00156*
X0178Y00145*
X02541Y00208D02*
X02526Y00223D01*
X02511*
Y00208*
X02526Y00193*
X02515Y00204*
X0253Y00219*
X02496Y00208D02*
X02519Y00186D01*
X02507Y00175*
X025*
X02485Y0019*
Y00197*
X02496Y00208*
X02459Y00171D02*
X02474Y00186D01*
X02485Y00175*
X02474Y00171*
X0247Y00167*
Y0016*
X02478Y00153*
X02485*
X02493Y0016*
Y00167*
X02437Y002D02*
X02422Y00215D01*
X02407*
Y002*
X02422Y00185*
X02411Y00197*
X02425Y00211*
X02392Y002D02*
X02414Y00178D01*
X02403Y00167*
X02396*
X02381Y00182*
Y00189*
X02392Y002*
X02381Y00145D02*
X02359Y00167D01*
X02381*
X02366Y00152*
X02338Y00204D02*
X02323Y00219D01*
X02308*
Y00204*
X02323Y00189*
X02312Y00201*
X02327Y00215*
X02294Y00204D02*
X02316Y00182D01*
X02305Y00171*
X02297*
X02282Y00186*
Y00193*
X02294Y00204*
X02275Y00178D02*
X02268D01*
X0226Y00171*
Y00163*
X02264Y0016*
X02271*
X02275Y00163*
X02271Y0016*
Y00152*
X02275Y00149*
X02282*
X0229Y00156*
Y00163*
X0224Y00204D02*
X02225Y00219D01*
X0221*
Y00204*
X02225Y00189*
X02214Y00201*
X02229Y00215*
X02195Y00204D02*
X02217Y00182D01*
X02206Y00171*
X02199*
X02184Y00186*
Y00193*
X02195Y00204*
X0218Y00145D02*
X02195Y0016D01*
X02165*
X02162Y00163*
Y00171*
X02169Y00178*
X02177*
X02133Y002D02*
X02119Y00214D01*
X02104*
Y002*
X02119Y00185*
X02107Y00196*
X02122Y00211*
X02089Y002D02*
X02111Y00177D01*
X021Y00166*
X02093*
X02078Y00181*
Y00188*
X02089Y002*
Y00155D02*
X02081Y00148D01*
X02085Y00151*
X02063Y00174*
X0207*
X02039Y00204D02*
X02024Y00219D01*
X02009*
Y00204*
X02024Y00189*
X02013Y00201*
X02028Y00215*
X01994Y00204D02*
X02017Y00182D01*
X02005Y00171*
X01998*
X01983Y00186*
Y00193*
X01994Y00204*
X01976Y00178D02*
X01968D01*
X01961Y00171*
Y00163*
X01976Y00149*
X01983*
X01991Y00156*
Y00163*
X01976Y00178*
X0005Y0011D02*
X00026D01*
X00014Y00098*
X00026Y00086*
X0005*
X00032*
Y0011*
X00014Y0021D02*
X0005D01*
Y00192*
X00044Y00186*
X00038*
X00032Y00192*
Y0021*
Y00192*
X00026Y00186*
X0002*
X00014Y00192*
Y0021*
X0002Y00286D02*
X00014Y00292D01*
Y00304*
X0002Y0031*
X00044*
X0005Y00304*
Y00292*
X00044Y00286*
X00014Y0041D02*
X0005D01*
Y00392*
X00044Y00386*
X0002*
X00014Y00392*
Y0041*
Y00486D02*
Y0051D01*
X0005*
Y00486*
X00032Y0051D02*
Y00498D01*
X00014Y00586D02*
Y0061D01*
X00032*
Y00598*
Y0061*
X0005*
X0002Y00686D02*
X00014Y00692D01*
Y00704*
X0002Y0071*
X00044*
X0005Y00704*
Y00692*
X00044Y00686*
X00032*
Y00698*
X00014Y0081D02*
X0005D01*
X00032*
Y00786*
X00014*
X0005*
X00014Y00905D02*
Y00893D01*
Y00899*
X0005*
Y00905*
Y00893*
X00014Y00986D02*
Y00998D01*
Y00992*
X00044*
X0005Y00998*
Y01004*
X00044Y0101*
X00014Y0111D02*
X0005D01*
X00038*
X00014Y01086*
X00032Y01104*
X0005Y01086*
Y0121D02*
X00014D01*
X00026Y01198*
X00014Y01186*
X0005*
Y0131D02*
X00014D01*
X0005Y01286*
X00014*
Y01392D02*
Y01404D01*
X0002Y0141*
X00044*
X0005Y01404*
Y01392*
X00044Y01386*
X0002*
X00014Y01392*
X0005Y0151D02*
X00014D01*
Y01492*
X0002Y01486*
X00032*
X00038Y01492*
Y0151*
X00044Y01586D02*
X0002D01*
X00014Y01592*
Y01604*
X0002Y0161*
X00044*
X0005Y01604*
Y01592*
X00038Y01598D02*
X0005Y01586D01*
Y01592D02*
X00044Y01586D01*
X0005Y0171D02*
X00014D01*
Y01692*
X0002Y01686*
X00032*
X00038Y01692*
Y0171*
Y01698D02*
X0005Y01686D01*
X0002Y01786D02*
X00014Y01792D01*
Y01804*
X0002Y0181*
X00026*
X00032Y01804*
Y01792*
X00038Y01786*
X00044*
X0005Y01792*
Y01804*
X00044Y0181*
X00014Y0191D02*
Y01886D01*
Y01898*
X0005*
X00014Y0201D02*
X00044D01*
X0005Y02004*
Y01992*
X00044Y01986*
X00014*
X00929Y00007D02*
Y00039D01*
X00944Y00023*
X00923*
X00892Y00039D02*
X00913D01*
Y00023*
X00902Y00028*
X00897*
X00892Y00023*
Y00013*
X00897Y00007*
X00908*
X00913Y00013*
X00881Y00007D02*
X00871D01*
X00876*
Y00039*
X00881Y00034*
X00855Y00007D02*
Y00039D01*
X00839*
X00834Y00034*
Y00023*
X00839Y00018*
X00855*
X00803Y00034D02*
X00808Y00039D01*
X00818*
X00824Y00034*
Y00013*
X00818Y00007*
X00808*
X00803Y00013*
X00792Y00039D02*
Y00007D01*
X00776*
X00771Y00013*
Y00018*
X00776Y00023*
X00792*
X00776*
X00771Y00028*
Y00034*
X00776Y00039*
X00792*
X00761Y00007D02*
Y00013D01*
X00755*
Y00007*
X00761*
X00713Y00034D02*
X00719Y00039D01*
X00729*
X00734Y00034*
Y00013*
X00729Y00007*
X00719*
X00713Y00013*
X00687Y00039D02*
X00698D01*
X00703Y00034*
Y00013*
X00698Y00007*
X00687*
X00682Y00013*
Y00034*
X00687Y00039*
X00672Y00007D02*
Y00039D01*
X00661Y00028*
X00651Y00039*
Y00007*
X00609D02*
Y00039D01*
X00593*
X00588Y00034*
Y00023*
X00593Y00018*
X00609*
X00577Y00028D02*
Y00007D01*
Y00018*
X00572Y00023*
X00567Y00028*
X00561*
X0054Y00007D02*
X0053D01*
X00525Y00013*
Y00023*
X0053Y00028*
X0054*
X00546Y00023*
Y00013*
X0054Y00007*
X00509Y00034D02*
Y00028D01*
X00514*
X00504*
X00509*
Y00013*
X00504Y00007*
X00483D02*
X00472D01*
X00467Y00013*
Y00023*
X00472Y00028*
X00483*
X00488Y00023*
Y00013*
X00483Y00007*
X00435Y00034D02*
X00441Y00039D01*
X00451*
X00456Y00034*
Y00028*
X00451Y00023*
X00441*
X00435Y00018*
Y00013*
X00441Y00007*
X00451*
X00456Y00013*
X00425Y00039D02*
Y00007D01*
Y00023*
X0042Y00028*
X00409*
X00404Y00023*
Y00007*
X00393D02*
X00383D01*
X00388*
Y00028*
X00393*
X00351Y00007D02*
X00362D01*
X00367Y00013*
Y00023*
X00362Y00028*
X00351*
X00346Y00023*
Y00018*
X00367*
X00336Y00007D02*
X00325D01*
X0033*
Y00039*
X00336*
X00288D02*
Y00007D01*
X00304*
X00309Y00013*
Y00023*
X00304Y00028*
X00288*
X00246D02*
X00236Y00007D01*
X00225Y00028*
X00215Y00007D02*
Y00013D01*
X0021*
Y00007*
X00215*
X00168D02*
X00189D01*
X00168Y00028*
Y00034*
X00173Y00039*
X00183*
X00189Y00034*
G54D19*
X02503Y01933D02*
X02487Y01949D01*
X02478Y01941*
Y01935*
X02484Y0193*
X0249*
X02498Y01938*
X02492Y01933D02*
Y01921D01*
X0247Y01933D02*
X02476Y01905D01*
X02459Y01921D02*
X02487Y01916D01*
X02388Y01953D02*
X02377Y01942D01*
X02383Y01948*
X02399Y01931*
X02372Y01937D02*
X02377Y01909D01*
X0236Y01925D02*
X02388Y0192D01*
X02222Y01942D02*
X02217Y01936D01*
X0222Y01939*
X02237Y01922*
X0224Y01925*
X02234Y01919*
X02199D02*
X02205Y01925D01*
X02211*
X02222Y01913*
Y01907*
X02217Y01902*
X02211*
X02199Y01913*
Y01919*
X02194Y01907D02*
X02188D01*
X02182Y01902*
Y01896*
X02185Y01893*
X02191*
X02194Y01896*
X02191Y01893*
Y01887*
X02194Y01884*
X02199*
X02205Y0189*
Y01896*
X02176Y0189D02*
X02171D01*
X02165Y01884*
X02159*
X02022Y01938D02*
X02016Y01932D01*
X02019Y01935*
X02036Y01918*
X02039Y01921*
X02033Y01915*
X01999D02*
X02004Y01921D01*
X0201*
X02022Y01909*
Y01904*
X02016Y01898*
X0201*
X01999Y01909*
Y01915*
X01978Y01895D02*
X0199Y01906D01*
X01999Y01898*
X0199Y01895*
X01987Y01892*
Y01886*
X01993Y01881*
X01999*
X02004Y01886*
Y01892*
X01976Y01886D02*
X0197D01*
X01964Y01881*
X01958*
X01923Y01942D02*
X01917Y01936D01*
X0192Y01939*
X01938Y01922*
X0194Y01925*
X01935Y01919*
X019D02*
X01906Y01925D01*
X01912*
X01923Y01913*
Y01907*
X01917Y01902*
X01912*
X019Y01913*
Y01919*
X0188Y01899D02*
X01889Y01902D01*
X019*
X01906Y01896*
Y0189*
X019Y01884*
X01894*
X01892Y01887*
Y01893*
X019Y01902*
X01877Y0189D02*
X01871D01*
X01866Y01884*
X0186*
X01562Y01941D02*
X01556Y01936D01*
X01559Y01939*
X01575Y01922*
X01578Y01925*
X01573Y01919*
X01539D02*
X01545Y01925D01*
X0155*
X01562Y01914*
Y01908*
X01556Y01902*
X0155*
X01539Y01914*
Y01919*
X01545Y01897D02*
Y01891D01*
X01539Y01886*
X01534*
X01523Y01897*
Y01902*
X01528Y01908*
X01534*
X01537Y01905*
Y019*
X01528Y01891*
X01517D02*
X01511D01*
X01506Y01886*
X015*
X01467Y01945D02*
X01461Y0194D01*
X01464Y01943*
X01481Y01926*
X01484Y01929*
X01478Y01923*
X01445D02*
X0145Y01929D01*
X01456*
X01467Y01918*
Y01912*
X01461Y01906*
X01456*
X01445Y01918*
Y01923*
X01453Y01898D02*
X01448Y01892D01*
X0145Y01895*
X01434Y01912*
X01439*
X01425Y01898D02*
X0142D01*
X01414Y01892*
Y01887*
X01425Y01876*
X01431*
X01436Y01881*
Y01887*
X01425Y01898*
X01409Y01881D02*
X01403D01*
X01397Y01876*
X01392*
X01369Y01957D02*
X01363Y01952D01*
X01366Y01954*
X01383Y01938*
X01385Y0194*
X0138Y01935*
X01346D02*
X01352Y0194D01*
X01358*
X01369Y01929*
Y01924*
X01363Y01918*
X01358*
X01346Y01929*
Y01935*
X01355Y0191D02*
X01349Y01904D01*
X01352Y01907*
X01335Y01924*
X01341*
Y01896D02*
X01335Y0189D01*
X01338Y01893*
X01321Y0191*
X01327*
X01313Y01896D02*
X01307D01*
X01302Y0189*
X01296*
X0126Y01952D02*
X01253Y01946D01*
X01256Y01949*
X01276Y01929*
X01279Y01933*
X01273Y01926*
X01234D02*
X0124Y01933D01*
X01247*
X0126Y0192*
Y01913*
X01253Y01907*
X01247*
X01234Y0192*
Y01926*
X01243Y01897D02*
X01237Y0189D01*
X0124Y01894*
X01221Y01913*
X01227*
X01214Y01868D02*
X01227Y01881D01*
X01201*
X01198Y01884*
Y0189*
X01204Y01897*
X01211*
X01161Y01952D02*
X01155Y01946D01*
X01158Y01949*
X01177Y01929*
X01181Y01933*
X01174Y01926*
X01135D02*
X01142Y01933D01*
X01148*
X01161Y0192*
Y01913*
X01155Y01907*
X01148*
X01135Y0192*
Y01926*
X01145Y01897D02*
X01138Y0189D01*
X01142Y01894*
X01122Y01913*
X01129*
X01112Y01897D02*
X01106D01*
X01099Y0189*
Y01884*
X01103Y01881*
X01109*
X01112Y01884*
X01109Y01881*
Y01874*
X01112Y01871*
X01119*
X01125Y01877*
Y01884*
X0098Y01933D02*
X00967Y01946D01*
X00954*
Y01933*
X00967Y0192*
X00957Y01929*
X0097Y01942*
X0096Y01913D02*
X00941Y01933D01*
X00931Y01923*
Y01916*
X00938Y0191*
X00944*
X00954Y0192*
X00947Y01913D02*
Y019D01*
X00908D02*
X00921Y01913D01*
X00941Y01894*
X00928Y01881*
X00931Y01903D02*
X00925Y01897D01*
X00889Y01881D02*
X00902Y01894D01*
X00912Y01884*
X00905Y01877*
X00912Y01884*
X00921Y01874*
X00279Y02081D02*
X00284Y02086D01*
X00294*
X003Y02081*
Y0206*
X00294Y02055*
X00284*
X00279Y0206*
Y0207*
X00289*
X00268Y02055D02*
Y02086D01*
X00252*
X00247Y02081*
Y0207*
X00252Y02065*
X00268*
X00237Y02086D02*
X00226D01*
X00231*
Y02055*
X00237*
X00226*
X00195Y02086D02*
X00205D01*
X0021Y02081*
Y0206*
X00205Y02055*
X00195*
X00189Y0206*
Y02081*
X00195Y02086*
G54D20*
X01045Y01932D02*
Y0194D01*
X01052Y01947*
X0106*
X01075Y01932*
Y01925*
X01067Y01918*
X0106*
X01052Y01925*
X0106Y01932*
X01056Y01906D02*
X01034Y01929D01*
X01041Y01892*
X01019Y01914*
X01011Y01906D02*
X01034Y01884D01*
X01023Y01873*
X01015*
X01Y01888*
Y01895*
X01011Y01906*
X01224Y00231D02*
X01218Y00225D01*
X01221Y00228*
X01239Y00213*
X01242Y00216*
X01237Y0021*
X01203Y00207D02*
X01208Y00213D01*
X01214Y00214*
X01226Y00203*
X01226Y00198*
X01221Y00192*
X01216Y00191*
X01204Y00202*
X01203Y00207*
X01214Y00183D02*
X01196Y00198D01*
X01188Y00189*
X01189Y00183*
X01195Y00178*
X012Y00179*
X01208Y00188*
X01203Y00182D02*
X01204Y00171D01*
X0117Y00168D02*
X01181Y0018D01*
X01199Y00165*
X01189Y00153*
X0119Y00172D02*
X01185Y00166D01*
X01155Y0015D02*
X01165Y00162D01*
X01174Y00154*
X01169Y00148*
X01174Y00154*
X01183Y00147*
X01346Y0022D02*
X01328Y00235D01*
X0132Y00226*
X01321Y00221*
X01327Y00216*
X01332Y00216*
X0134Y00225*
X01335Y00219D02*
X01336Y00208D01*
X01303Y00205D02*
X01313Y00217D01*
X01331Y00202*
X01321Y0019*
X01322Y00209D02*
X01317Y00203D01*
X0129Y00184D02*
X0129Y0019D01*
X01295Y00196*
X01301Y00196*
X01304Y00194*
X01304Y00188*
X01299Y00182*
X01299Y00177*
X01302Y00174*
X01308Y00175*
X01313Y00181*
X01313Y00186*
X01272Y00169D02*
X01282Y00181D01*
X013Y00166*
X0129Y00154*
X01291Y00173D02*
X01286Y00167D01*
X01267Y00163D02*
X01257Y00151D01*
X01262Y00157*
X0128Y00142*
X01608Y00208D02*
Y00215D01*
X01615Y00223*
X01623*
X01638Y00208*
Y00201*
X0163Y00193*
X01623*
X01615Y00201*
X01623Y00208*
X01619Y00182D02*
X01597Y00204D01*
X01604Y00167*
X01582Y00189*
X01574Y00182D02*
X01597Y0016D01*
X01586Y00149*
X01578*
X01563Y00163*
Y00171*
X01574Y00182*
X01708Y00208D02*
Y00215D01*
X01715Y00223*
X01723*
X01738Y00208*
Y00201*
X0173Y00193*
X01723*
X01715Y00201*
X01723Y00208*
X01719Y00182D02*
X01697Y00204D01*
X01704Y00167*
X01682Y00189*
X01674Y00182D02*
X01697Y0016D01*
X01686Y00149*
X01678*
X01663Y00163*
Y00171*
X01674Y00182*
G54D16*
X0255Y0175D02*
Y01986D01*
Y01996D02*
Y0205D01*
Y0195D02*
Y02023D01*
Y02033D02*
Y02075D01*
X0169Y0175D02*
Y01948D01*
Y01958D02*
Y01968D01*
Y02024D02*
Y0205D01*
Y01983D02*
Y02009D01*
Y0195D02*
Y02075D01*
X0105Y00052D02*
Y00147D01*
Y00027D02*
Y00152D01*
Y00225D02*
Y0035D01*
Y00155D02*
Y0035D01*
M02*