%FSTAX23Y23*%
%MOIN*%
%SFA1B1*%

%IPPOS*%
%ADD16C,0.010000*%
%ADD17C,0.007870*%
%ADD18C,0.005910*%
%ADD19C,0.005000*%
%ADD20C,0.005120*%
%LNarduino-uno-shield-v2-1*%
%LPD*%
G54D16*
X02455Y00948D02*
X02655D01*
Y01248*
X02455Y01148D02*
X02555D01*
Y01248*
X02455Y01223D02*
X0248Y01248D01*
X02655*
X02455Y00948D02*
Y01223D01*
X0175Y0175D02*
Y0205D01*
X0185Y0175D02*
Y02075D01*
X0195Y0175D02*
Y02075D01*
X0205Y0175D02*
Y02075D01*
X0215Y0175D02*
Y02075D01*
X0225Y0175D02*
Y02075D01*
X0245Y0175D02*
Y02075D01*
X0255Y0175D02*
Y0205D01*
X0069Y0175D02*
Y0205D01*
X0079Y0175D02*
Y02075D01*
X0089Y0175D02*
Y02075D01*
X0099Y0175D02*
Y02075D01*
X0109Y0175D02*
Y02075D01*
X0119Y0175D02*
Y02075D01*
X0129Y0175D02*
Y02075D01*
X0139Y0175D02*
Y02075D01*
X0149Y0175D02*
Y02075D01*
X0159Y0175D02*
Y02075D01*
X0255Y0005D02*
Y0035D01*
X0245Y00025D02*
Y0035D01*
X0235Y00025D02*
Y0035D01*
X0225Y00025D02*
Y0035D01*
X0215Y00025D02*
Y0035D01*
X0205Y00025D02*
Y0035D01*
X0195Y0005D02*
Y0035D01*
X0185Y0005D02*
Y0035D01*
X0175Y00025D02*
Y0035D01*
X0165Y00025D02*
Y0035D01*
X0155Y00025D02*
Y0035D01*
X0145Y00025D02*
Y0035D01*
X0135Y00025D02*
Y0035D01*
X0125Y00025D02*
Y0035D01*
X0105Y0005D02*
Y0035D01*
X0115Y00025D02*
Y0035D01*
X0105Y00225D02*
Y0035D01*
X0185*
Y00225D02*
Y0035D01*
Y00025D02*
Y0015D01*
X0105Y00025D02*
Y0015D01*
Y00025D02*
X0185D01*
X0255Y0175D02*
Y01875D01*
X0175Y0175D02*
Y01875D01*
Y0175D02*
X0255D01*
X0175Y0195D02*
Y02075D01*
X0255*
Y0195D02*
Y02075D01*
X0169Y0175D02*
Y01875D01*
X0159Y0175D02*
X0169D01*
X0069D02*
Y01875D01*
Y0175D02*
X0159D01*
X01615Y02075D02*
X0169D01*
X0069Y0195D02*
Y02075D01*
X01615*
X0195Y001D02*
Y0015D01*
X0255Y0005D02*
Y0015D01*
X0195Y00025D02*
Y001D01*
Y00025D02*
X02D01*
X0255*
Y0005*
X0235Y0175D02*
Y02075D01*
X0255Y00225D02*
Y0025D01*
X0195Y00225D02*
Y003D01*
X0205Y0035D02*
X0255D01*
Y0025D02*
Y0035D01*
X0195Y003D02*
Y0035D01*
X0205*
G54D17*
X0025Y00055D02*
Y0205D01*
X02625Y00102D02*
X02585D01*
X02565Y00122*
X02585Y00141*
X02625*
X02595*
Y00102*
X02565Y00161D02*
X02625D01*
Y0019*
X02615Y002*
X02575*
X02565Y0019*
Y00161*
G54D18*
X019Y001D02*
X01864D01*
Y00117*
X0187Y00123*
X01882*
X01888Y00117*
Y001*
X01864Y00153D02*
Y00141D01*
X0187Y00135*
X01894*
X019Y00141*
Y00153*
X01894Y00159*
X0187*
X01864Y00153*
Y0017D02*
X019D01*
X01888Y00182*
X019Y00194*
X01864*
Y00229D02*
Y00206D01*
X019*
Y00229*
X01882Y00206D02*
Y00218D01*
X019Y00241D02*
X01864D01*
Y00259*
X0187Y00265*
X01882*
X01888Y00259*
Y00241*
Y00253D02*
X019Y00265D01*
X02551Y0165D02*
Y0166D01*
Y01655*
X02582*
Y0165*
Y0166*
X02551Y01691D02*
Y01681D01*
X02556Y01676*
X02577*
X02582Y01681*
Y01691*
X02577Y01697*
X02556*
X02551Y01691*
Y01707D02*
X02582D01*
Y01728*
X02653Y00818D02*
Y00829D01*
Y00824*
X02685*
Y00818*
Y00829*
X02658Y00866D02*
X02653Y0086D01*
Y0085*
X02658Y00845*
X02679*
X02685Y0085*
Y0086*
X02679Y00866*
X02658Y00897D02*
X02653Y00892D01*
Y00881*
X02658Y00876*
X02664*
X02669Y00881*
Y00892*
X02674Y00897*
X02679*
X02685Y00892*
Y00881*
X02679Y00876*
X02685Y00908D02*
X02653D01*
Y00923*
X02658Y00929*
X02669*
X02674Y00923*
Y00908*
X0011Y00007D02*
Y00039D01*
X00094Y00023*
X00115*
X00146Y00039D02*
X00125D01*
Y00023*
X00136Y00028*
X00141*
X00146Y00023*
Y00013*
X00141Y00007*
X00131*
X00125Y00013*
X00157Y00007D02*
X00167D01*
X00162*
Y00039*
X00157Y00034*
X00183Y00007D02*
Y00039D01*
X00199*
X00204Y00034*
Y00023*
X00199Y00018*
X00183*
X00236Y00034D02*
X0023Y00039D01*
X0022*
X00215Y00034*
Y00013*
X0022Y00007*
X0023*
X00236Y00013*
X00246Y00039D02*
Y00007D01*
X00262*
X00267Y00013*
Y00018*
X00262Y00023*
X00246*
X00262*
X00267Y00028*
Y00034*
X00262Y00039*
X00246*
X00278Y00007D02*
Y00013D01*
X00283*
Y00007*
X00278*
X00325Y00034D02*
X0032Y00039D01*
X00309*
X00304Y00034*
Y00013*
X00309Y00007*
X0032*
X00325Y00013*
X00351Y00039D02*
X00341D01*
X00335Y00034*
Y00013*
X00341Y00007*
X00351*
X00356Y00013*
Y00034*
X00351Y00039*
X00367Y00007D02*
Y00039D01*
X00377Y00028*
X00388Y00039*
Y00007*
X0043D02*
Y00039D01*
X00446*
X00451Y00034*
Y00023*
X00446Y00018*
X0043*
X00461Y00028D02*
Y00007D01*
Y00018*
X00467Y00023*
X00472Y00028*
X00477*
X00498Y00007D02*
X00509D01*
X00514Y00013*
Y00023*
X00509Y00028*
X00498*
X00493Y00023*
Y00013*
X00498Y00007*
X0053Y00034D02*
Y00028D01*
X00524*
X00535*
X0053*
Y00013*
X00535Y00007*
X00556D02*
X00566D01*
X00572Y00013*
Y00023*
X00566Y00028*
X00556*
X00551Y00023*
Y00013*
X00556Y00007*
X00603Y00034D02*
X00598Y00039D01*
X00587*
X00582Y00034*
Y00028*
X00587Y00023*
X00598*
X00603Y00018*
Y00013*
X00598Y00007*
X00587*
X00582Y00013*
X00614Y00039D02*
Y00007D01*
Y00023*
X00619Y00028*
X00629*
X00635Y00023*
Y00007*
X00645D02*
X00655D01*
X0065*
Y00028*
X00645*
X00687Y00007D02*
X00676D01*
X00671Y00013*
Y00023*
X00676Y00028*
X00687*
X00692Y00023*
Y00018*
X00671*
X00703Y00007D02*
X00713D01*
X00708*
Y00039*
X00703*
X0075D02*
Y00007D01*
X00734*
X00729Y00013*
Y00023*
X00734Y00028*
X0075*
X00792D02*
X00802Y00007D01*
X00813Y00028*
X00823Y00007D02*
Y00013D01*
X00829*
Y00007*
X00823*
X00871D02*
X0085D01*
X00871Y00028*
Y00034*
X00865Y00039*
X00855*
X0085Y00034*
X0005Y00086D02*
X00026D01*
X00014Y00098*
X00026Y0011*
X0005*
X00032*
Y00086*
X02472Y01889D02*
X02479Y01896D01*
X02475Y01892*
X02495Y01873*
X02492Y0187*
X02498Y01876*
Y01915D02*
X02492Y01909D01*
Y01902*
X02505Y01889*
X02511*
X02518Y01896*
Y01902*
X02505Y01915*
X02498*
X02511Y01922D02*
Y01928D01*
X02518Y01935*
X02524*
X02537Y01922*
Y01915*
X02531Y01909*
X02524*
X02511Y01922*
X02378Y01893D02*
X02384Y01899D01*
X02381Y01896*
X024Y01877*
X02397Y01874*
X02404Y0188*
Y01919D02*
X02397Y01912D01*
Y01906*
X0241Y01893*
X02417*
X02423Y01899*
Y01906*
X0241Y01919*
X02404*
X02433Y01909D02*
X02439Y01916D01*
X02436Y01912*
X02417Y01932*
Y01925*
X02261Y01897D02*
X02268Y01904D01*
X02264Y019*
X02287Y01878*
X02283Y01875*
X0229Y01882*
Y01926D02*
X02283Y01919D01*
Y01912*
X02298Y01897*
X02305*
X02313Y01904*
Y01912*
X02298Y01926*
X0229*
X02339Y0193D02*
X02324Y01915D01*
Y01945*
X0232Y01949*
X02313*
X02305Y01941*
Y01934*
X0206Y01896D02*
X02067Y01903D01*
X02064Y01899*
X02086Y01877*
X02082Y01874*
X0209Y01881*
Y01925D02*
X02082Y01918D01*
Y01911*
X02097Y01896*
X02104*
X02112Y01903*
Y01911*
X02097Y01925*
X0209*
X02134D02*
X02112Y01948D01*
Y01925*
X02127Y0194*
X01769Y01897D02*
X01776Y01904D01*
X01772Y019*
X01795Y01878*
X01791Y01875*
X01798Y01882*
Y01926D02*
X01791Y01919D01*
Y01912*
X01806Y01897*
X01813*
X01821Y01904*
Y01912*
X01806Y01926*
X01798*
X01809Y01938D02*
X01824Y01952D01*
X01828Y01949*
Y01919*
X01832Y01915*
X01602Y01897D02*
X0161Y01904D01*
X01606Y019*
X01628Y01878*
X01625Y01875*
X01632Y01882*
Y01926D02*
X01625Y01919D01*
Y01912*
X01639Y01897*
X01647*
X01654Y01904*
Y01912*
X01639Y01926*
X01632*
X01647Y01934D02*
Y01941D01*
X01654Y01949*
X01662*
X01665Y01945*
Y01938*
X01673*
X01676Y01934*
Y01926*
X01669Y01919*
X01662*
X01658Y01923*
Y0193*
X0165*
X01647Y01934*
X01658Y0193D02*
X01665Y01938D01*
X00815Y01907D02*
X00807D01*
X008Y01899*
Y01892*
X00804Y01888*
X00811*
X00818Y01896*
X00826*
X0083Y01892*
Y01885*
X00822Y01877*
X00815*
X00818Y01918D02*
X00841Y01896D01*
X00852Y01907*
Y01914*
X00837Y01929*
X0083*
X00818Y01918*
X00863D02*
X00848Y01933D01*
Y01948*
X00863*
X00878Y01933*
X00867Y01944*
X00852Y01929*
X00716Y01909D02*
X00709D01*
X00701Y01901*
Y01894*
X00705Y0189*
X00713*
X0072Y01898*
X00727*
X00731Y01894*
Y01887*
X00724Y01879*
X00716*
X00739Y01931D02*
X00731D01*
X00724Y01924*
Y01916*
X00739Y01901*
X00746*
X00753Y01909*
Y01916*
X00742Y01942D02*
X00765Y0192D01*
X00779Y01935*
X01363Y00164D02*
Y00171D01*
X0137Y00179*
X01378*
X01381Y00175*
Y00167*
X01378Y00164*
X01381Y00167*
X01389*
X01393Y00164*
Y00156*
X01385Y00149*
X01378*
X01389Y00182D02*
X01411Y00175D01*
X01404Y00197*
X01407Y00208D02*
Y00216D01*
X01415Y00223*
X01422*
X01426Y00219*
Y00212*
X01422Y00208*
X01426Y00212*
X01433*
X01437Y00208*
Y00201*
X0143Y00193*
X01422*
X01757Y00167D02*
X01772Y00153D01*
X01786*
Y00167*
X01772Y00182*
X01801Y00167D02*
X01809Y00175D01*
X01805Y00171*
X0179Y00186*
X01786Y00182*
X0182Y00186D02*
X01805Y00201D01*
X01816Y00212*
X01824*
X01835Y00201*
X01978Y00145D02*
X01963Y0016D01*
Y00175*
X01978*
X01993Y0016*
X01982Y00171*
X01967Y00156*
X01978Y0019D02*
X02Y00167D01*
X02011Y00179*
Y00186*
X01996Y00201*
X01989*
X01978Y0019*
X02004Y00208D02*
Y00216D01*
X02011Y00223*
X02019*
X02034Y00208*
Y00201*
X02026Y00193*
X02019*
X02004Y00208*
X0208Y00145D02*
X02065Y0016D01*
Y00175*
X0208*
X02095Y0016*
X02084Y00171*
X02069Y00156*
X0208Y0019D02*
X02102Y00167D01*
X02114Y00179*
Y00186*
X02099Y00201*
X02091*
X0208Y0019*
X02125D02*
X02132Y00197D01*
X02128Y00193*
X02106Y00216*
Y00208*
X02181Y00145D02*
X02166Y0016D01*
Y00175*
X02181*
X02195Y0016*
X02184Y00171*
X02169Y00156*
X02181Y0019D02*
X02203Y00167D01*
X02214Y00179*
Y00186*
X02199Y00201*
X02192*
X02181Y0019*
X0224Y00205D02*
X02225Y0019D01*
Y00219*
X02221Y00223*
X02214*
X02207Y00216*
Y00208*
X02279Y00145D02*
X02264Y0016D01*
Y00175*
X02279*
X02294Y0016*
X02283Y00171*
X02268Y00156*
X02279Y0019D02*
X02301Y00167D01*
X02312Y00179*
Y00186*
X02298Y00201*
X0229*
X02279Y0019*
X02305Y00208D02*
Y00216D01*
X02312Y00223*
X0232*
X02324Y00219*
Y00212*
X0232Y00208*
X02324Y00212*
X02331*
X02335Y00208*
Y00201*
X02327Y00193*
X0232*
X02377Y00145D02*
X02363Y0016D01*
Y00175*
X02377*
X02392Y0016*
X02381Y00171*
X02366Y00156*
X02377Y0019D02*
X024Y00167D01*
X02411Y00179*
Y00186*
X02396Y00201*
X02389*
X02377Y0019*
X02433Y00201D02*
X02411Y00223D01*
Y00201*
X02426Y00216*
X0248Y00145D02*
X02465Y0016D01*
Y00175*
X0248*
X02495Y0016*
X02484Y00171*
X02469Y00156*
X0248Y0019D02*
X02502Y00167D01*
X02513Y00179*
Y00186*
X02498Y00201*
X02491*
X0248Y0019*
X02517Y00227D02*
X02502Y00212D01*
X02513Y00201*
X02517Y00212*
X02521Y00216*
X02528*
X02535Y00208*
Y00201*
X02528Y00193*
X02521*
X01486Y00194D02*
X01468Y00175D01*
X01482Y00161*
X01486Y00175*
X01491Y0018*
X015*
X01509Y0017*
Y00161*
X015Y00152*
X01491*
X01505Y00194D02*
X01533Y00184D01*
X01523Y00212*
X00014Y00188D02*
X0005D01*
Y00206*
X00044Y00212*
X00038*
X00032Y00206*
Y00188*
Y00206*
X00026Y00212*
X0002*
X00014Y00206*
Y00188*
X0002Y00312D02*
X00014Y00306D01*
Y00294*
X0002Y00288*
X00044*
X0005Y00294*
Y00306*
X00044Y00312*
X00014Y00388D02*
X0005D01*
Y00406*
X00044Y00412*
X0002*
X00014Y00406*
Y00388*
Y00512D02*
Y00488D01*
X0005*
Y00512*
X00032Y00488D02*
Y005D01*
X00014Y00612D02*
Y00588D01*
X00032*
Y006*
Y00588*
X0005*
X0002Y00712D02*
X00014Y00706D01*
Y00694*
X0002Y00688*
X00044*
X0005Y00694*
Y00706*
X00044Y00712*
X00032*
Y007*
X00014Y00788D02*
X0005D01*
X00032*
Y00812*
X00014*
X0005*
X00014Y00893D02*
Y00905D01*
Y00899*
X0005*
Y00893*
Y00905*
X00014Y01012D02*
Y01D01*
Y01006*
X00044*
X0005Y01*
Y00994*
X00044Y00988*
X00014Y01088D02*
X0005D01*
X00038*
X00014Y01112*
X00032Y01094*
X0005Y01112*
Y01188D02*
X00014D01*
X00026Y012*
X00014Y01212*
X0005*
Y01288D02*
X00014D01*
X0005Y01312*
X00014*
Y01406D02*
Y01394D01*
X0002Y01388*
X00044*
X0005Y01394*
Y01406*
X00044Y01412*
X0002*
X00014Y01406*
X0005Y01488D02*
X00014D01*
Y01506*
X0002Y01512*
X00032*
X00038Y01506*
Y01488*
X00044Y01612D02*
X0002D01*
X00014Y01606*
Y01594*
X0002Y01588*
X00044*
X0005Y01594*
Y01606*
X00038Y016D02*
X0005Y01612D01*
Y01606D02*
X00044Y01612D01*
X0005Y01688D02*
X00014D01*
Y01706*
X0002Y01712*
X00032*
X00038Y01706*
Y01688*
Y017D02*
X0005Y01712D01*
X0002Y01812D02*
X00014Y01806D01*
Y01794*
X0002Y01788*
X00026*
X00032Y01794*
Y01806*
X00038Y01812*
X00044*
X0005Y01806*
Y01794*
X00044Y01788*
X00014Y01888D02*
Y01912D01*
Y019*
X0005*
X00014Y01988D02*
X00044D01*
X0005Y01994*
Y02006*
X00044Y02012*
X00014*
G54D19*
X02476Y01905D02*
X02459Y01922D01*
X02468Y0193*
X02473*
X02479Y01924*
Y01919*
X0247Y01911*
X02476Y01916D02*
X02487D01*
X02476Y01938D02*
X02504Y01933D01*
X02487Y0195D02*
X02493Y01922D01*
X02361D02*
X02372Y01933D01*
X02366Y01927*
X02383Y01911*
X02377Y01938D02*
X02405Y01933D01*
X02389Y0195D02*
X02394Y01922D01*
X02167Y01891D02*
X02173Y01897D01*
X0217Y01894*
X02187Y01876*
X02185Y01874*
X0219Y01879*
Y01914D02*
X02185Y01908D01*
Y01902*
X02196Y01891*
X02202*
X02208Y01897*
Y01902*
X02196Y01914*
X0219*
X02202Y0192D02*
Y01925D01*
X02208Y01931*
X02213*
X02216Y01928*
Y01922*
X02213Y0192*
X02216Y01922*
X02222*
X02225Y0192*
Y01914*
X02219Y01908*
X02213*
X02219Y01937D02*
Y01943D01*
X02225Y01948*
Y01954*
X01967Y01887D02*
X01972Y01893D01*
X01969Y0189*
X01987Y01872*
X01984Y0187*
X0199Y01875*
Y0191D02*
X01984Y01904D01*
Y01898*
X01995Y01887*
X02001*
X02007Y01893*
Y01898*
X01995Y0191*
X0199*
X0201Y0193D02*
X01998Y01918D01*
X02007Y0191*
X0201Y01918*
X02013Y01921*
X02018*
X02024Y01916*
Y0191*
X02018Y01904*
X02013*
X02018Y01933D02*
Y01939D01*
X02024Y01944*
Y0195*
X01868Y01891D02*
X01874Y01897D01*
X01871Y01894*
X01888Y01876*
X01885Y01874*
X01891Y01879*
Y01914D02*
X01885Y01908D01*
Y01902*
X01897Y01891*
X01903*
X01908Y01897*
Y01902*
X01897Y01914*
X01891*
X01911Y01934D02*
X01908Y01925D01*
Y01914*
X01914Y01908*
X0192*
X01926Y01914*
Y0192*
X01923Y01922*
X01917*
X01908Y01914*
X0192Y01937D02*
Y01943D01*
X01926Y01948*
Y01954*
X01506Y0189D02*
X01512Y01896D01*
X01509Y01893*
X01526Y01876*
X01523Y01874*
X01529Y01879*
Y01912D02*
X01523Y01907D01*
Y01901*
X01534Y0189*
X0154*
X01545Y01896*
Y01901*
X01534Y01912*
X01529*
X01551Y01907D02*
X01557D01*
X01562Y01912*
Y01918*
X01551Y01929*
X01545*
X0154Y01924*
Y01918*
X01543Y01915*
X01548*
X01557Y01924*
Y01935D02*
Y0194D01*
X01562Y01946*
Y01951*
X01404Y01886D02*
X0141Y01892D01*
X01407Y01889*
X01424Y01872*
X01421Y0187*
X01426Y01875*
Y01909D02*
X01421Y01903D01*
Y01897*
X01432Y01886*
X01437*
X01443Y01892*
Y01897*
X01432Y01909*
X01426*
X01451Y019D02*
X01457Y01906D01*
X01454Y01903*
X01437Y0192*
Y01914*
X01451Y01928D02*
Y01934D01*
X01457Y01939*
X01463*
X01474Y01928*
Y01922*
X01468Y01917*
X01463*
X01451Y01928*
X01468Y01945D02*
Y0195D01*
X01474Y01956*
Y01961*
X01302Y01886D02*
X01307Y01892D01*
X01304Y01889*
X01321Y01872*
X01318Y0187*
X01324Y01875*
Y01909D02*
X01318Y01903D01*
Y01897*
X0133Y01886*
X01335*
X01341Y01892*
Y01897*
X0133Y01909*
X01324*
X01349Y019D02*
X01355Y01906D01*
X01352Y01903*
X01335Y0192*
Y01914*
X01363D02*
X01368Y0192D01*
X01366Y01917*
X01349Y01934*
Y01928*
X01363Y01942D02*
Y01948D01*
X01368Y01953*
Y01959*
X01197Y01889D02*
X01203Y01896D01*
X012Y01892*
X01219Y01873*
X01216Y0187*
X01223Y01876*
Y01915D02*
X01216Y01909D01*
Y01902*
X01229Y01889*
X01236*
X01242Y01896*
Y01902*
X01229Y01915*
X01223*
X01252Y01905D02*
X01258Y01912D01*
X01255Y01909*
X01236Y01928*
Y01922*
X01281Y01935D02*
X01268Y01922D01*
Y01948*
X01265Y01951*
X01258*
X01252Y01944*
Y01938*
X01098Y01889D02*
X01105Y01896D01*
X01101Y01892*
X01121Y01873*
X01118Y0187*
X01124Y01876*
Y01915D02*
X01118Y01909D01*
Y01902*
X01131Y01889*
X01137*
X01144Y01896*
Y01902*
X01131Y01915*
X01124*
X01153Y01905D02*
X0116Y01912D01*
X01157Y01909*
X01137Y01928*
Y01922*
X01153Y01938D02*
Y01944D01*
X0116Y01951*
X01166*
X0117Y01948*
Y01941*
X01166Y01938*
X0117Y01941*
X01176*
X01179Y01938*
Y01931*
X01173Y01925*
X01166*
X00917Y01868D02*
X00904Y01881D01*
Y01894*
X00917*
X0093Y01881*
X0092Y0189*
X00907Y01877*
X00936Y01887D02*
X00917Y01907D01*
X00927Y01916*
X00933*
X0094Y0191*
Y01903*
X0093Y01894*
X00936Y019D02*
X00949D01*
Y01939D02*
X00936Y01926D01*
X00956Y01907*
X00969Y0192*
X00946Y01916D02*
X00953Y01923D01*
X00969Y01959D02*
X00956Y01946D01*
X00966Y01936*
X00972Y01942*
X00966Y01936*
X00975Y01926*
X0022Y02081D02*
X00215Y02086D01*
X00205*
X002Y02081*
Y0206*
X00205Y02055*
X00215*
X0022Y0206*
Y0207*
X0021*
X00231Y02055D02*
Y02086D01*
X00247*
X00252Y02081*
Y0207*
X00247Y02065*
X00231*
X00262Y02086D02*
X00273D01*
X00268*
Y02055*
X00262*
X00273*
X00304Y02086D02*
X00294D01*
X00289Y02081*
Y0206*
X00294Y02055*
X00304*
X0031Y0206*
Y02081*
X00304Y02086*
G54D20*
X01015Y01903D02*
X01008D01*
X01001Y01896*
Y01888*
X01015Y01873*
X01023*
X0103Y01881*
Y01888*
X01023Y01896*
X01015Y01888*
X01041Y01892D02*
X01019Y01914D01*
X01056Y01907*
X01034Y01929*
X01041Y01936D02*
X01064Y01914D01*
X01075Y01925*
Y01933*
X0106Y01948*
X01053*
X01041Y01936*
X01677Y00179D02*
X01669D01*
X01662Y00171*
Y00164*
X01677Y00149*
X01684*
X01692Y00156*
Y00164*
X01684Y00171*
X01677Y00164*
X01703Y00167D02*
X01681Y0019D01*
X01718Y00182*
X01695Y00205*
X01703Y00212D02*
X01725Y0019D01*
X01736Y00201*
Y00208*
X01721Y00223*
X01714*
X01703Y00212*
X01158Y00162D02*
X01163Y00167D01*
X01161Y00165*
X01177Y00148*
X01175Y00145*
X0118Y00151*
Y00184D02*
X01175Y00179D01*
Y00173*
X01186Y00162*
X01191*
X01197Y00167*
Y00173*
X01186Y00184*
X0118*
X01205Y00176D02*
X01188Y00192D01*
X01197Y00201*
X01202*
X01208Y00195*
Y0019*
X012Y00181*
X01205Y00187D02*
X01216D01*
Y0022D02*
X01205Y00209D01*
X01222Y00192*
X01233Y00204*
X01213Y00201D02*
X01219Y00206D01*
X01233Y00237D02*
X01222Y00226D01*
X0123Y00218*
X01236Y00223*
X0123Y00218*
X01239Y00209*
X01275Y00145D02*
X01258Y00162D01*
X01266Y0017*
X01272*
X01277Y00165*
Y00159*
X01269Y00151*
X01275Y00156D02*
X01286D01*
Y0019D02*
X01275Y00179D01*
X01291Y00162*
X01302Y00173*
X01283Y0017D02*
X01288Y00176D01*
X01305Y00204D02*
X013D01*
X01294Y00198*
Y00192*
X01297Y0019*
X01302*
X01308Y00195*
X01313*
X01316Y00192*
Y00187*
X01311Y00181*
X01305*
X01319Y00223D02*
X01308Y00212D01*
X01325Y00195*
X01336Y00206*
X01316Y00204D02*
X01322Y00209D01*
X01325Y00229D02*
X01336Y0024D01*
X0133Y00234*
X01347Y00218*
X01577Y00179D02*
X01569D01*
X01562Y00171*
Y00164*
X01577Y00149*
X01584*
X01591Y00156*
Y00164*
X01584Y00171*
X01577Y00164*
X01602Y00167D02*
X0158Y0019D01*
X01617Y00182*
X01595Y00205*
X01602Y00212D02*
X01625Y0019D01*
X01636Y00201*
Y00208*
X01621Y00223*
X01614*
X01602Y00212*
G54D16*
X01689Y0195D02*
X0169D01*
Y02075*
Y0175D02*
Y0205D01*
M02*