%FSTAX23Y23*%
%MOIN*%
%SFA1B1*%

%IPPOS*%
%ADD16C,0.010000*%
%ADD17C,0.007870*%
%ADD18C,0.005910*%
%ADD19C,0.005000*%
%ADD20C,0.005120*%
%ADD21C,0.004920*%
%LNArduino-UNO-ProtoShield-v2.1-1*%
%LPD*%
G54D16*
X0175Y0175D02*
Y0205D01*
X0185Y0175D02*
Y02075D01*
X0195Y0175D02*
Y02075D01*
X0205Y0175D02*
Y02075D01*
X0215Y0175D02*
Y02075D01*
X0225Y0175D02*
Y02075D01*
X0245Y0175D02*
Y02075D01*
X0255Y0175D02*
Y0205D01*
X0069Y0175D02*
Y0205D01*
X0079Y0175D02*
Y02075D01*
X0089Y0175D02*
Y02075D01*
X0099Y0175D02*
Y02075D01*
X0109Y0175D02*
Y02075D01*
X0119Y0175D02*
Y02075D01*
X0129Y0175D02*
Y02075D01*
X0139Y0175D02*
Y02075D01*
X0149Y0175D02*
Y02075D01*
X0159Y0175D02*
Y02075D01*
X0255Y0005D02*
Y0035D01*
X0245Y00025D02*
Y0035D01*
X0235Y00025D02*
Y0035D01*
X0225Y00025D02*
Y0035D01*
X0215Y00025D02*
Y0035D01*
X0205Y00025D02*
Y0035D01*
X0195Y0005D02*
Y0035D01*
X0185Y0005D02*
Y0035D01*
X0175Y00025D02*
Y0035D01*
X0165Y00025D02*
Y0035D01*
X0155Y00025D02*
Y0035D01*
X0145Y00025D02*
Y0035D01*
X0125Y00025D02*
Y0035D01*
X0105Y0005D02*
Y0035D01*
X0115Y00025D02*
Y0035D01*
X0105Y00225D02*
Y0035D01*
X0185*
Y00225D02*
Y0035D01*
Y00025D02*
Y0015D01*
X0105Y00025D02*
Y0015D01*
Y00025D02*
X0185D01*
X0255Y0175D02*
Y01875D01*
X0175Y0175D02*
Y01875D01*
Y0175D02*
X0255D01*
X0175Y0195D02*
Y02075D01*
X0255*
Y0195D02*
Y02075D01*
X0169Y0175D02*
Y01875D01*
X0159Y0175D02*
X0169D01*
X0069D02*
Y01875D01*
Y0175D02*
X0159D01*
X01615Y02075D02*
X0169D01*
X0069Y0195D02*
Y02075D01*
X01615*
X0195Y001D02*
Y0015D01*
X0255Y0005D02*
Y0015D01*
X0195Y00025D02*
Y001D01*
Y00025D02*
X02D01*
X0255*
Y0005*
X0235Y0175D02*
Y02075D01*
X0255Y00225D02*
Y0025D01*
X0195Y00225D02*
Y003D01*
X0205Y0035D02*
X0255D01*
Y0025D02*
Y0035D01*
X0195Y003D02*
Y0035D01*
X0205*
X01689Y0195D02*
X0169D01*
Y02075*
Y0175D02*
Y0205D01*
X0135Y00025D02*
Y0035D01*
X02455Y00948D02*
X02655D01*
Y01248*
X02455Y01148D02*
X02555D01*
Y01248*
X02455Y01223D02*
X0248Y01248D01*
X02655*
X02455Y00948D02*
Y01223D01*
X0255Y00225D02*
Y0025D01*
G54D18*
X019Y001D02*
X01864D01*
Y00117*
X0187Y00123*
X01882*
X01888Y00117*
Y001*
X01864Y00153D02*
Y00141D01*
X0187Y00135*
X01894*
X019Y00141*
Y00153*
X01894Y00159*
X0187*
X01864Y00153*
Y0017D02*
X019D01*
X01888Y00182*
X019Y00194*
X01864*
Y00229D02*
Y00206D01*
X019*
Y00229*
X01882Y00206D02*
Y00218D01*
X019Y00241D02*
X01864D01*
Y00259*
X0187Y00265*
X01882*
X01888Y00259*
Y00241*
Y00253D02*
X019Y00265D01*
X02559Y01555D02*
Y01564D01*
Y01559*
X02586*
Y01555*
Y01564*
X02559Y01591D02*
Y01582D01*
X02563Y01578*
X02582*
X02586Y01582*
Y01591*
X02582Y01596*
X02563*
X02559Y01591*
X02653Y00818D02*
Y00829D01*
Y00824*
X02685*
Y00818*
Y00829*
X02658Y00866D02*
X02653Y0086D01*
Y0085*
X02658Y00845*
X02679*
X02685Y0085*
Y0086*
X02679Y00866*
X02658Y00897D02*
X02653Y00892D01*
Y00881*
X02658Y00876*
X02664*
X02669Y00881*
Y00892*
X02674Y00897*
X02679*
X02685Y00892*
Y00881*
X02679Y00876*
X02685Y00908D02*
X02653D01*
Y00923*
X02658Y00929*
X02669*
X02674Y00923*
Y00908*
X0011Y00007D02*
Y00039D01*
X00094Y00023*
X00115*
X00146Y00039D02*
X00125D01*
Y00023*
X00136Y00028*
X00141*
X00146Y00023*
Y00013*
X00141Y00007*
X00131*
X00125Y00013*
X00157Y00007D02*
X00167D01*
X00162*
Y00039*
X00157Y00034*
X00183Y00007D02*
Y00039D01*
X00199*
X00204Y00034*
Y00023*
X00199Y00018*
X00183*
X00236Y00034D02*
X0023Y00039D01*
X0022*
X00215Y00034*
Y00013*
X0022Y00007*
X0023*
X00236Y00013*
X00246Y00039D02*
Y00007D01*
X00262*
X00267Y00013*
Y00018*
X00262Y00023*
X00246*
X00262*
X00267Y00028*
Y00034*
X00262Y00039*
X00246*
X00278Y00007D02*
Y00013D01*
X00283*
Y00007*
X00278*
X00325Y00034D02*
X0032Y00039D01*
X00309*
X00304Y00034*
Y00013*
X00309Y00007*
X0032*
X00325Y00013*
X00351Y00039D02*
X00341D01*
X00335Y00034*
Y00013*
X00341Y00007*
X00351*
X00356Y00013*
Y00034*
X00351Y00039*
X00367Y00007D02*
Y00039D01*
X00377Y00028*
X00388Y00039*
Y00007*
X0043D02*
Y00039D01*
X00446*
X00451Y00034*
Y00023*
X00446Y00018*
X0043*
X00461Y00028D02*
Y00007D01*
Y00018*
X00467Y00023*
X00472Y00028*
X00477*
X00498Y00007D02*
X00509D01*
X00514Y00013*
Y00023*
X00509Y00028*
X00498*
X00493Y00023*
Y00013*
X00498Y00007*
X0053Y00034D02*
Y00028D01*
X00524*
X00535*
X0053*
Y00013*
X00535Y00007*
X00556D02*
X00566D01*
X00572Y00013*
Y00023*
X00566Y00028*
X00556*
X00551Y00023*
Y00013*
X00556Y00007*
X00603Y00034D02*
X00598Y00039D01*
X00587*
X00582Y00034*
Y00028*
X00587Y00023*
X00598*
X00603Y00018*
Y00013*
X00598Y00007*
X00587*
X00582Y00013*
X00614Y00039D02*
Y00007D01*
Y00023*
X00619Y00028*
X00629*
X00635Y00023*
Y00007*
X00645D02*
X00655D01*
X0065*
Y00028*
X00645*
X00687Y00007D02*
X00676D01*
X00671Y00013*
Y00023*
X00676Y00028*
X00687*
X00692Y00023*
Y00018*
X00671*
X00703Y00007D02*
X00713D01*
X00708*
Y00039*
X00703*
X0075D02*
Y00007D01*
X00734*
X00729Y00013*
Y00023*
X00734Y00028*
X0075*
X00792D02*
X00802Y00007D01*
X00813Y00028*
X00823Y00007D02*
Y00013D01*
X00829*
Y00007*
X00823*
X00871D02*
X0085D01*
X00871Y00028*
Y00034*
X00865Y00039*
X00855*
X0085Y00034*
X00881Y00007D02*
Y00013D01*
X00886*
Y00007*
X00881*
X00907D02*
X00918D01*
X00913*
Y00039*
X00907Y00034*
X00051Y00098D02*
Y0011D01*
Y00104*
X00015*
X00021Y00098*
X02472Y01889D02*
X02479Y01896D01*
X02475Y01892*
X02495Y01873*
X02492Y0187*
X02498Y01876*
Y01915D02*
X02492Y01909D01*
Y01902*
X02505Y01889*
X02511*
X02518Y01896*
Y01902*
X02505Y01915*
X02498*
X02511Y01922D02*
Y01928D01*
X02518Y01935*
X02524*
X02537Y01922*
Y01915*
X02531Y01909*
X02524*
X02511Y01922*
X02378Y01893D02*
X02384Y01899D01*
X02381Y01896*
X024Y01877*
X02397Y01874*
X02404Y0188*
Y01919D02*
X02397Y01912D01*
Y01906*
X0241Y01893*
X02417*
X02423Y01899*
Y01906*
X0241Y01919*
X02404*
X02433Y01909D02*
X02439Y01916D01*
X02436Y01912*
X02417Y01932*
Y01925*
X02261Y01897D02*
X02268Y01904D01*
X02264Y019*
X02287Y01878*
X02283Y01875*
X0229Y01882*
Y01926D02*
X02283Y01919D01*
Y01912*
X02298Y01897*
X02305*
X02313Y01904*
Y01912*
X02298Y01926*
X0229*
X02339Y0193D02*
X02324Y01915D01*
Y01945*
X0232Y01949*
X02313*
X02305Y01941*
Y01934*
X0206Y01896D02*
X02067Y01903D01*
X02064Y01899*
X02086Y01877*
X02082Y01874*
X0209Y01881*
Y01925D02*
X02082Y01918D01*
Y01911*
X02097Y01896*
X02104*
X02112Y01903*
Y01911*
X02097Y01925*
X0209*
X02134D02*
X02112Y01948D01*
Y01925*
X02127Y0194*
X01769Y01897D02*
X01776Y01904D01*
X01772Y019*
X01795Y01878*
X01791Y01875*
X01798Y01882*
Y01926D02*
X01791Y01919D01*
Y01912*
X01806Y01897*
X01813*
X01821Y01904*
Y01912*
X01806Y01926*
X01798*
X01809Y01938D02*
X01824Y01952D01*
X01828Y01949*
Y01919*
X01832Y01915*
X01602Y01897D02*
X0161Y01904D01*
X01606Y019*
X01628Y01878*
X01625Y01875*
X01632Y01882*
Y01926D02*
X01625Y01919D01*
Y01912*
X01639Y01897*
X01647*
X01654Y01904*
Y01912*
X01639Y01926*
X01632*
X01647Y01934D02*
Y01941D01*
X01654Y01949*
X01662*
X01665Y01945*
Y01938*
X01673*
X01676Y01934*
Y01926*
X01669Y01919*
X01662*
X01658Y01923*
Y0193*
X0165*
X01647Y01934*
X01658Y0193D02*
X01665Y01938D01*
X00815Y01907D02*
X00807D01*
X008Y01899*
Y01892*
X00804Y01888*
X00811*
X00818Y01896*
X00826*
X0083Y01892*
Y01885*
X00822Y01877*
X00815*
X00818Y01918D02*
X00841Y01896D01*
X00852Y01907*
Y01914*
X00837Y01929*
X0083*
X00818Y01918*
X00863D02*
X00848Y01933D01*
Y01948*
X00863*
X00878Y01933*
X00867Y01944*
X00852Y01929*
X00716Y01909D02*
X00709D01*
X00701Y01901*
Y01894*
X00705Y0189*
X00713*
X0072Y01898*
X00727*
X00731Y01894*
Y01887*
X00724Y01879*
X00716*
X00739Y01931D02*
X00731D01*
X00724Y01924*
Y01916*
X00739Y01901*
X00746*
X00753Y01909*
Y01916*
X00742Y01942D02*
X00765Y0192D01*
X00779Y01935*
X01363Y00164D02*
Y00171D01*
X0137Y00179*
X01378*
X01381Y00175*
Y00167*
X01378Y00164*
X01381Y00167*
X01389*
X01393Y00164*
Y00156*
X01385Y00149*
X01378*
X01389Y00182D02*
X01411Y00175D01*
X01404Y00197*
X01407Y00208D02*
Y00216D01*
X01415Y00223*
X01422*
X01426Y00219*
Y00212*
X01422Y00208*
X01426Y00212*
X01433*
X01437Y00208*
Y00201*
X0143Y00193*
X01422*
X01757Y00167D02*
X01772Y00153D01*
X01786*
Y00167*
X01772Y00182*
X01801Y00167D02*
X01809Y00175D01*
X01805Y00171*
X0179Y00186*
X01786Y00182*
X0182Y00186D02*
X01805Y00201D01*
X01816Y00212*
X01824*
X01835Y00201*
X01978Y00145D02*
X01963Y0016D01*
Y00175*
X01978*
X01993Y0016*
X01982Y00171*
X01967Y00156*
X01978Y0019D02*
X02Y00167D01*
X02011Y00179*
Y00186*
X01996Y00201*
X01989*
X01978Y0019*
X02004Y00208D02*
Y00216D01*
X02011Y00223*
X02019*
X02034Y00208*
Y00201*
X02026Y00193*
X02019*
X02004Y00208*
X0208Y00145D02*
X02065Y0016D01*
Y00175*
X0208*
X02095Y0016*
X02084Y00171*
X02069Y00156*
X0208Y0019D02*
X02102Y00167D01*
X02114Y00179*
Y00186*
X02099Y00201*
X02091*
X0208Y0019*
X02125D02*
X02132Y00197D01*
X02128Y00193*
X02106Y00216*
Y00208*
X02181Y00145D02*
X02166Y0016D01*
Y00175*
X02181*
X02195Y0016*
X02184Y00171*
X02169Y00156*
X02181Y0019D02*
X02203Y00167D01*
X02214Y00179*
Y00186*
X02199Y00201*
X02192*
X02181Y0019*
X0224Y00205D02*
X02225Y0019D01*
Y00219*
X02221Y00223*
X02214*
X02207Y00216*
Y00208*
X02279Y00145D02*
X02264Y0016D01*
Y00175*
X02279*
X02294Y0016*
X02283Y00171*
X02268Y00156*
X02279Y0019D02*
X02301Y00167D01*
X02312Y00179*
Y00186*
X02298Y00201*
X0229*
X02279Y0019*
X02305Y00208D02*
Y00216D01*
X02312Y00223*
X0232*
X02324Y00219*
Y00212*
X0232Y00208*
X02324Y00212*
X02331*
X02335Y00208*
Y00201*
X02327Y00193*
X0232*
X02377Y00145D02*
X02363Y0016D01*
Y00175*
X02377*
X02392Y0016*
X02381Y00171*
X02366Y00156*
X02377Y0019D02*
X024Y00167D01*
X02411Y00179*
Y00186*
X02396Y00201*
X02389*
X02377Y0019*
X02433Y00201D02*
X02411Y00223D01*
Y00201*
X02426Y00216*
X0248Y00145D02*
X02465Y0016D01*
Y00175*
X0248*
X02495Y0016*
X02484Y00171*
X02469Y00156*
X0248Y0019D02*
X02502Y00167D01*
X02513Y00179*
Y00186*
X02498Y00201*
X02491*
X0248Y0019*
X02517Y00227D02*
X02502Y00212D01*
X02513Y00201*
X02517Y00212*
X02521Y00216*
X02528*
X02535Y00208*
Y00201*
X02528Y00193*
X02521*
X01486Y00194D02*
X01468Y00175D01*
X01482Y00161*
X01486Y00175*
X01491Y0018*
X015*
X01509Y0017*
Y00161*
X015Y00152*
X01491*
X01505Y00194D02*
X01533Y00184D01*
X01523Y00212*
X0005Y00212D02*
Y00188D01*
X00026Y00212*
X0002*
X00014Y00206*
Y00194*
X0002Y00188*
Y00288D02*
X00014Y00294D01*
Y00306*
X0002Y00312*
X00026*
X00032Y00306*
Y003*
Y00306*
X00038Y00312*
X00044*
X0005Y00306*
Y00294*
X00044Y00288*
X0005Y00406D02*
X00014D01*
X00032Y00388*
Y00412*
X00014Y00512D02*
Y00488D01*
X00032*
X00026Y005*
Y00506*
X00032Y00512*
X00044*
X0005Y00506*
Y00494*
X00044Y00488*
X00014Y00612D02*
X0002Y006D01*
X00032Y00588*
X00044*
X0005Y00594*
Y00606*
X00044Y00612*
X00038*
X00032Y00606*
Y00588*
X00014Y00688D02*
Y00712D01*
X0002*
X00044Y00688*
X0005*
X0002Y00788D02*
X00014Y00794D01*
Y00806*
X0002Y00812*
X00026*
X00032Y00806*
X00038Y00812*
X00044*
X0005Y00806*
Y00794*
X00044Y00788*
X00038*
X00032Y00794*
X00026Y00788*
X0002*
X00032Y00794D02*
Y00806D01*
X00044Y00893D02*
X0005Y00899D01*
Y00911*
X00044Y00917*
X0002*
X00014Y00911*
Y00899*
X0002Y00893*
X00026*
X00032Y00899*
Y00917*
X0005Y00975D02*
Y00986D01*
Y0098*
X00014*
X0002Y00975*
Y01004D02*
X00014Y0101D01*
Y01022*
X0002Y01028*
X00044*
X0005Y01022*
Y0101*
X00044Y01004*
X0002*
X00051Y01082D02*
Y01094D01*
Y01088*
X00015*
X00021Y01082*
X00051Y01112D02*
Y01124D01*
Y01118*
X00015*
X00021Y01112*
X0005Y01175D02*
Y01186D01*
Y0118*
X00014*
X0002Y01175*
X0005Y01228D02*
Y01204D01*
X00026Y01228*
X0002*
X00014Y01222*
Y0121*
X0002Y01204*
X0005Y01275D02*
Y01286D01*
Y0128*
X00014*
X0002Y01275*
Y01304D02*
X00014Y0131D01*
Y01322*
X0002Y01328*
X00026*
X00032Y01322*
Y01316*
Y01322*
X00038Y01328*
X00044*
X0005Y01322*
Y0131*
X00044Y01304*
X0005Y01375D02*
Y01386D01*
Y0138*
X00014*
X0002Y01375*
X0005Y01422D02*
X00014D01*
X00032Y01404*
Y01428*
X0005Y01475D02*
Y01486D01*
Y0148*
X00014*
X0002Y01475*
X00014Y01528D02*
Y01504D01*
X00032*
X00026Y01516*
Y01522*
X00032Y01528*
X00044*
X0005Y01522*
Y0151*
X00044Y01504*
X0005Y01575D02*
Y01586D01*
Y0158*
X00014*
X0002Y01575*
X00014Y01628D02*
X0002Y01616D01*
X00032Y01604*
X00044*
X0005Y0161*
Y01622*
X00044Y01628*
X00038*
X00032Y01622*
Y01604*
X0005Y01675D02*
Y01686D01*
Y0168*
X00014*
X0002Y01675*
X00014Y01704D02*
Y01728D01*
X0002*
X00044Y01704*
X0005*
Y01775D02*
Y01786D01*
Y0178*
X00014*
X0002Y01775*
Y01804D02*
X00014Y0181D01*
Y01822*
X0002Y01828*
X00026*
X00032Y01822*
X00038Y01828*
X00044*
X0005Y01822*
Y0181*
X00044Y01804*
X00038*
X00032Y0181*
X00026Y01804*
X0002*
X00032Y0181D02*
Y01822D01*
X0005Y01875D02*
Y01886D01*
Y0188*
X00014*
X0002Y01875*
X00044Y01904D02*
X0005Y0191D01*
Y01922*
X00044Y01928*
X0002*
X00014Y01922*
Y0191*
X0002Y01904*
X00026*
X00032Y0191*
Y01928*
X00051Y01992D02*
Y01968D01*
X00027Y01992*
X00021*
X00015Y01986*
Y01974*
X00021Y01968*
Y02003D02*
X00015Y02009D01*
Y02021*
X00021Y02027*
X00045*
X00051Y02021*
Y02009*
X00045Y02003*
X00021*
G54D17*
X02625Y00102D02*
X02585D01*
X02565Y00122*
X02585Y00141*
X02625*
X02595*
Y00102*
X02565Y00161D02*
X02625D01*
Y0019*
X02615Y002*
X02575*
X02565Y0019*
Y00161*
G54D19*
X02476Y01905D02*
X02458Y01923D01*
X02467Y01932*
X02473*
X02479Y01926*
Y0192*
X0247Y01911*
X02476Y01917D02*
X02488D01*
X02476Y01941D02*
X02506Y01935D01*
X02488Y01953D02*
X02494Y01923D01*
X02359D02*
X02371Y01935D01*
X02365Y01929*
X02383Y01911*
X02377Y01941D02*
X02408Y01935D01*
X0239Y01953D02*
X02396Y01923D01*
X02166Y01892D02*
X02172Y01898D01*
X02169Y01895*
X02188Y01877*
X02185Y01874*
X02191Y0188*
Y01916D02*
X02185Y0191D01*
Y01904*
X02197Y01892*
X02203*
X02209Y01898*
Y01904*
X02197Y01916*
X02191*
X02203Y01922D02*
Y01928D01*
X02209Y01934*
X02215*
X02218Y01931*
Y01925*
X02215Y01922*
X02218Y01925*
X02224*
X02227Y01922*
Y01916*
X02221Y0191*
X02215*
X02221Y0194D02*
Y01946D01*
X02227Y01952*
Y01958*
X01966Y01888D02*
X01972Y01894D01*
X01969Y01891*
X01987Y01873*
X01984Y0187*
X0199Y01876*
Y01912D02*
X01984Y01906D01*
Y019*
X01996Y01888*
X02002*
X02008Y01894*
Y019*
X01996Y01912*
X0199*
X02011Y01933D02*
X01999Y01921D01*
X02008Y01912*
X02011Y01921*
X02014Y01924*
X0202*
X02026Y01918*
Y01912*
X0202Y01906*
X02014*
X0202Y01936D02*
Y01942D01*
X02026Y01948*
Y01954*
X01867Y01892D02*
X01873Y01898D01*
X0187Y01895*
X01888Y01877*
X01885Y01874*
X01891Y0188*
Y01916D02*
X01885Y0191D01*
Y01904*
X01897Y01892*
X01903*
X01909Y01898*
Y01904*
X01897Y01916*
X01891*
X01912Y01937D02*
X01909Y01928D01*
Y01916*
X01915Y0191*
X01922*
X01928Y01916*
Y01922*
X01925Y01925*
X01918*
X01909Y01916*
X01922Y0194D02*
Y01946D01*
X01928Y01952*
Y01958*
X01505Y01892D02*
X01511Y01898D01*
X01508Y01895*
X01526Y01877*
X01523Y01874*
X01529Y0188*
Y01916D02*
X01523Y0191D01*
Y01904*
X01535Y01892*
X01541*
X01547Y01898*
Y01904*
X01535Y01916*
X01529*
X01553Y0191D02*
X01559D01*
X01565Y01916*
Y01922*
X01553Y01934*
X01547*
X01541Y01928*
Y01922*
X01544Y01919*
X0155*
X01559Y01928*
Y0194D02*
Y01946D01*
X01565Y01952*
Y01958*
X01403Y01888D02*
X01409Y01894D01*
X01406Y01891*
X01424Y01873*
X01421Y0187*
X01427Y01876*
Y01912D02*
X01421Y01906D01*
Y019*
X01433Y01888*
X01439*
X01445Y01894*
Y019*
X01433Y01912*
X01427*
X01454Y01903D02*
X0146Y01909D01*
X01457Y01906*
X01439Y01924*
Y01918*
X01454Y01933D02*
Y01939D01*
X0146Y01945*
X01466*
X01478Y01933*
Y01927*
X01472Y01921*
X01466*
X01454Y01933*
X01472Y01951D02*
Y01957D01*
X01478Y01963*
Y01969*
X013Y01888D02*
X01306Y01894D01*
X01303Y01891*
X01321Y01873*
X01318Y0187*
X01324Y01876*
Y01912D02*
X01318Y01906D01*
Y019*
X0133Y01888*
X01336*
X01343Y01894*
Y019*
X0133Y01912*
X01324*
X01352Y01903D02*
X01358Y01909D01*
X01355Y01906*
X01336Y01924*
Y01918*
X01367D02*
X01373Y01924D01*
X0137Y01921*
X01352Y01939*
Y01933*
X01367Y01948D02*
Y01954D01*
X01373Y0196*
Y01966*
X01197Y01889D02*
X01203Y01896D01*
X012Y01892*
X01219Y01873*
X01216Y0187*
X01223Y01876*
Y01915D02*
X01216Y01909D01*
Y01902*
X01229Y01889*
X01236*
X01242Y01896*
Y01902*
X01229Y01915*
X01223*
X01252Y01905D02*
X01258Y01912D01*
X01255Y01909*
X01236Y01928*
Y01922*
X01281Y01935D02*
X01268Y01922D01*
Y01948*
X01265Y01951*
X01258*
X01252Y01944*
Y01938*
X01097Y0189D02*
X01104Y01897D01*
X011Y01894*
X01121Y01873*
X01118Y0187*
X01125Y01877*
Y01918D02*
X01118Y01911D01*
Y01904*
X01132Y0189*
X01138*
X01145Y01897*
Y01904*
X01132Y01918*
X01125*
X01156Y01908D02*
X01163Y01915D01*
X01159Y01911*
X01138Y01932*
Y01925*
X01156Y01943D02*
Y0195D01*
X01163Y01957*
X0117*
X01173Y01953*
Y01946*
X0117Y01943*
X01173Y01946*
X0118*
X01184Y01943*
Y01936*
X01177Y01929*
X0117*
X00917Y01868D02*
X00903Y01882D01*
Y01895*
X00917*
X00931Y01882*
X0092Y01892*
X00906Y01878*
X00938Y01888D02*
X00917Y01909D01*
X00927Y0192*
X00934*
X00941Y01913*
Y01906*
X00931Y01895*
X00938Y01902D02*
X00952D01*
Y01944D02*
X00938Y0193D01*
X00959Y01909*
X00972Y01923*
X00948Y0192D02*
X00955Y01927D01*
X00972Y01965D02*
X00959Y01951D01*
X00969Y01941*
X00976Y01948*
X00969Y01941*
X00979Y0193*
X002Y02086D02*
X0022D01*
X0021*
Y02055*
X00247Y02086D02*
X00236D01*
X00231Y02081*
Y0206*
X00236Y02055*
X00247*
X00252Y0206*
Y02081*
X00247Y02086*
X00262Y02055D02*
Y02086D01*
X00278*
X00283Y02081*
Y0207*
X00278Y02065*
X00262*
X00346Y02081D02*
X00341Y02086D01*
X00331*
X00325Y02081*
Y02076*
X00331Y0207*
X00341*
X00346Y02065*
Y0206*
X00341Y02055*
X00331*
X00325Y0206*
X00357Y02086D02*
X00367D01*
X00362*
Y02055*
X00357*
X00367*
X00383Y02086D02*
Y02055D01*
X00399*
X00404Y0206*
Y02081*
X00399Y02086*
X00383*
X00436D02*
X00415D01*
Y02055*
X00436*
X00415Y0207D02*
X00425D01*
G54D20*
X01015Y01903D02*
X01008D01*
X01001Y01896*
Y01888*
X01015Y01873*
X01023*
X0103Y01881*
Y01888*
X01023Y01896*
X01015Y01888*
X01041Y01892D02*
X01019Y01914D01*
X01056Y01907*
X01034Y01929*
X01041Y01936D02*
X01064Y01914D01*
X01075Y01925*
Y01933*
X0106Y01948*
X01053*
X01041Y01936*
X01677Y00179D02*
X01669D01*
X01662Y00171*
Y00164*
X01677Y00149*
X01684*
X01692Y00156*
Y00164*
X01684Y00171*
X01677Y00164*
X01703Y00167D02*
X01681Y0019D01*
X01718Y00182*
X01695Y00205*
X01703Y00212D02*
X01725Y0019D01*
X01736Y00201*
Y00208*
X01721Y00223*
X01714*
X01703Y00212*
X01155Y00163D02*
X01161Y00169D01*
X01158Y00166*
X01176Y00148*
X01173Y00145*
X01179Y00151*
Y00187D02*
X01173Y00181D01*
Y00175*
X01185Y00163*
X01191*
X01197Y00169*
Y00175*
X01185Y00187*
X01179*
X01206Y00178D02*
X01188Y00196D01*
X01197Y00205*
X01203*
X01209Y00199*
Y00193*
X012Y00184*
X01206Y0019D02*
X01218D01*
Y00227D02*
X01206Y00215D01*
X01224Y00196*
X01236Y00208*
X01215Y00205D02*
X01221Y00212D01*
X01236Y00245D02*
X01224Y00233D01*
X01233Y00224*
X01239Y0023*
X01233Y00224*
X01242Y00215*
X01275Y00145D02*
X01258Y00162D01*
X01266Y0017*
X01272*
X01277Y00165*
Y00159*
X01269Y00151*
X01275Y00156D02*
X01286D01*
Y0019D02*
X01275Y00179D01*
X01291Y00162*
X01302Y00173*
X01283Y0017D02*
X01288Y00176D01*
X01305Y00204D02*
X013D01*
X01294Y00198*
Y00192*
X01297Y0019*
X01302*
X01308Y00195*
X01313*
X01316Y00192*
Y00187*
X01311Y00181*
X01305*
X01319Y00223D02*
X01308Y00212D01*
X01325Y00195*
X01336Y00206*
X01316Y00204D02*
X01322Y00209D01*
X01325Y00229D02*
X01336Y0024D01*
X0133Y00234*
X01347Y00218*
X01577Y00179D02*
X01569D01*
X01562Y00171*
Y00164*
X01577Y00149*
X01584*
X01591Y00156*
Y00164*
X01584Y00171*
X01577Y00164*
X01602Y00167D02*
X0158Y0019D01*
X01617Y00182*
X01595Y00205*
X01602Y00212D02*
X01625Y0019D01*
X01636Y00201*
Y00208*
X01621Y00223*
X01614*
X01602Y00212*
G54D21*
X02586Y01626D02*
X02578Y01618D01*
X02569*
X02561Y01626*
X02586Y01639D02*
X02561D01*
Y01652*
X02565Y01656*
X02573*
X02578Y01652*
Y01639*
X02561Y01665D02*
X02586D01*
X02578Y01673*
X02586Y01682*
X02561*
X02586Y0169D02*
X02561D01*
X02569Y01699*
X02561Y01707*
X02586*
X02565Y01716D02*
X02561Y0172D01*
Y01728*
X02556Y01733*
X02586Y01741D02*
X02578Y0175D01*
X02569*
X02561Y01741*
M02*
