%FSTAX23Y23*%
%MOIN*%
%SFA1B1*%

%IPPOS*%
%ADD18C,0.005000*%
%ADD29C,0.006670*%
%LN451PCB-COM_Arduino_ProtoShield_Board_v1_drawing*%
%LPD*%
G54D18*
X0108Y0018D02*
Y0022D01*
X0112*
Y0018*
X0108*
X0162Y0178D02*
Y0182D01*
X0166*
Y0178*
X0162*
X0152D02*
Y0182D01*
X0156*
Y0178*
X0152*
X0142D02*
Y0182D01*
X0146*
Y0178*
X0142*
X0132D02*
Y0182D01*
X0136*
Y0178*
X0132*
X0122D02*
Y0182D01*
X0126*
Y0178*
X0122*
X0112D02*
Y0182D01*
X0116*
Y0178*
X0112*
X0102D02*
Y0182D01*
X0106*
Y0178*
X0102*
X0092D02*
Y0182D01*
X0096*
Y0178*
X0092*
X0082D02*
Y0182D01*
X0086*
Y0178*
X0082*
X0072D02*
Y0182D01*
X0076*
Y0178*
X0072*
X0162Y0198D02*
Y0202D01*
X0166*
Y0198*
X0162*
X0152D02*
Y0202D01*
X0156*
Y0198*
X0152*
X0142D02*
Y0202D01*
X0146*
Y0198*
X0142*
X0132D02*
Y0202D01*
X0136*
Y0198*
X0132*
X0122D02*
Y0202D01*
X0126*
Y0198*
X0122*
X0112D02*
Y0202D01*
X0116*
Y0198*
X0112*
X0102D02*
Y0202D01*
X0106*
Y0198*
X0102*
X0092D02*
Y0202D01*
X0096*
Y0198*
X0092*
X0082D02*
Y0202D01*
X0086*
Y0198*
X0082*
X0072D02*
Y0202D01*
X0076*
Y0198*
X0072*
X0008Y0008D02*
Y0012D01*
X0012*
Y0008*
X0008*
X0018D02*
Y0012D01*
X0022*
Y0008*
X0018*
X0028D02*
Y0012D01*
X0032*
Y0008*
X0028*
X0038D02*
Y0012D01*
X0042*
Y0008*
X0038*
X0068D02*
Y0012D01*
X0072*
Y0008*
X0068*
X0078D02*
Y0012D01*
X0082*
Y0008*
X0078*
X0088D02*
Y0012D01*
X0092*
Y0008*
X0088*
X0098D02*
Y0012D01*
X0102*
Y0008*
X0098*
X0008Y0198D02*
Y0202D01*
X0012*
Y0198*
X0008*
X0018D02*
Y0202D01*
X0022*
Y0198*
X0018*
X0028D02*
Y0202D01*
X0032*
Y0198*
X0028*
X0038D02*
Y0202D01*
X0042*
Y0198*
X0038*
X0048D02*
Y0202D01*
X0052*
Y0198*
X0048*
X0008Y0188D02*
Y0192D01*
X0012*
Y0188*
X0008*
X0018D02*
Y0192D01*
X0022*
Y0188*
X0018*
X0028D02*
Y0192D01*
X0032*
Y0188*
X0028*
X0038D02*
Y0192D01*
X0042*
Y0188*
X0038*
X0048D02*
Y0192D01*
X0052*
Y0188*
X0048*
X0058D02*
Y0192D01*
X0062*
Y0188*
X0058*
X0008Y0178D02*
Y0182D01*
X0012*
Y0178*
X0008*
X0018D02*
Y0182D01*
X0022*
Y0178*
X0018*
X0028D02*
Y0182D01*
X0032*
Y0178*
X0028*
X0038D02*
Y0182D01*
X0042*
Y0178*
X0038*
X0048D02*
Y0182D01*
X0052*
Y0178*
X0048*
X0058D02*
Y0182D01*
X0062*
Y0178*
X0058*
X0008Y0018D02*
Y0022D01*
X0012*
Y0018*
X0008*
X0018D02*
Y0022D01*
X0022*
Y0018*
X0018*
X0028D02*
Y0022D01*
X0032*
Y0018*
X0028*
X0038D02*
Y0022D01*
X0042*
Y0018*
X0038*
X0048D02*
Y0022D01*
X0052*
Y0018*
X0048*
X0058D02*
Y0022D01*
X0062*
Y0018*
X0058*
X0068D02*
Y0022D01*
X0072*
Y0018*
X0068*
X0078D02*
Y0022D01*
X0082*
Y0018*
X0078*
X0088D02*
Y0022D01*
X0092*
Y0018*
X0088*
X0098D02*
Y0022D01*
X0102*
Y0018*
X0098*
X0008Y0028D02*
Y0032D01*
X0012*
Y0028*
X0008*
X0018D02*
Y0032D01*
X0022*
Y0028*
X0018*
X0028D02*
Y0032D01*
X0032*
Y0028*
X0028*
X0038D02*
Y0032D01*
X0042*
Y0028*
X0038*
X0048D02*
Y0032D01*
X0052*
Y0028*
X0048*
X0058D02*
Y0032D01*
X0062*
Y0028*
X0058*
X0068D02*
Y0032D01*
X0072*
Y0028*
X0068*
X0078D02*
Y0032D01*
X0082*
Y0028*
X0078*
X0088D02*
Y0032D01*
X0092*
Y0028*
X0088*
X0098D02*
Y0032D01*
X0102*
Y0028*
X0098*
X0058Y0168D02*
Y0172D01*
X0062*
Y0168*
X0058*
X0068D02*
Y0172D01*
X0072*
Y0168*
X0068*
X0078D02*
Y0172D01*
X0082*
Y0168*
X0078*
X0088D02*
Y0172D01*
X0092*
Y0168*
X0088*
X0098D02*
Y0172D01*
X0102*
Y0168*
X0098*
X0108D02*
Y0172D01*
X0112*
Y0168*
X0108*
X0118D02*
Y0172D01*
X0122*
Y0168*
X0118*
X0128D02*
Y0172D01*
X0132*
Y0168*
X0128*
X0138D02*
Y0172D01*
X0142*
Y0168*
X0138*
X0148D02*
Y0172D01*
X0152*
Y0168*
X0148*
X0158D02*
Y0172D01*
X0162*
Y0168*
X0158*
X0168D02*
Y0172D01*
X0172*
Y0168*
X0168*
X0178D02*
Y0172D01*
X0182*
Y0168*
X0178*
X0188D02*
Y0172D01*
X0192*
Y0168*
X0188*
X0198D02*
Y0172D01*
X0202*
Y0168*
X0198*
X0208D02*
Y0172D01*
X0212*
Y0168*
X0208*
X0218D02*
Y0172D01*
X0222*
Y0168*
X0218*
X0228D02*
Y0172D01*
X0232*
Y0168*
X0228*
X0238D02*
Y0172D01*
X0242*
Y0168*
X0238*
X0248D02*
Y0172D01*
X0252*
Y0168*
X0248*
X0008D02*
Y0172D01*
X0012*
Y0168*
X0008*
X0018D02*
Y0172D01*
X0022*
Y0168*
X0018*
X0028D02*
Y0172D01*
X0032*
Y0168*
X0028*
X0038D02*
Y0172D01*
X0042*
Y0168*
X0038*
X0048D02*
Y0172D01*
X0052*
Y0168*
X0048*
X0228Y0178D02*
Y0182D01*
X0232*
Y0178*
X0228*
X0238D02*
Y0182D01*
X0242*
Y0178*
X0238*
X0178D02*
Y0182D01*
X0182*
Y0178*
X0178*
X0248D02*
Y0182D01*
X0252*
Y0178*
X0248*
X0208D02*
Y0182D01*
X0212*
Y0178*
X0208*
X0198D02*
Y0182D01*
X0202*
Y0178*
X0198*
X0188D02*
Y0182D01*
X0192*
Y0178*
X0188*
X0218D02*
Y0182D01*
X0222*
Y0178*
X0218*
X0228Y0198D02*
Y0202D01*
X0232*
Y0198*
X0228*
X0238D02*
Y0202D01*
X0242*
Y0198*
X0238*
X0178D02*
Y0202D01*
X0182*
Y0198*
X0178*
X0248D02*
Y0202D01*
X0252*
Y0198*
X0248*
X0208D02*
Y0202D01*
X0212*
Y0198*
X0208*
X0198D02*
Y0202D01*
X0202*
Y0198*
X0198*
X0188D02*
Y0202D01*
X0192*
Y0198*
X0188*
X0218D02*
Y0202D01*
X0222*
Y0198*
X0218*
X0148Y0028D02*
Y0032D01*
X0152*
Y0028*
X0148*
X0118D02*
Y0032D01*
X0122*
Y0028*
X0118*
X0128D02*
Y0032D01*
X0132*
Y0028*
X0128*
X0138D02*
Y0032D01*
X0142*
Y0028*
X0138*
X0178D02*
Y0032D01*
X0182*
Y0028*
X0178*
X0108D02*
Y0032D01*
X0112*
Y0028*
X0108*
X0168D02*
Y0032D01*
X0172*
Y0028*
X0168*
X0158D02*
Y0032D01*
X0162*
Y0028*
X0158*
X0148Y0008D02*
Y0012D01*
X0152*
Y0008*
X0148*
X0118D02*
Y0012D01*
X0122*
Y0008*
X0118*
X0128D02*
Y0012D01*
X0132*
Y0008*
X0128*
X0138D02*
Y0012D01*
X0142*
Y0008*
X0138*
X0178D02*
Y0012D01*
X0182*
Y0008*
X0178*
X0108D02*
Y0012D01*
X0112*
Y0008*
X0108*
X0168D02*
Y0012D01*
X0172*
Y0008*
X0168*
X0158D02*
Y0012D01*
X0162*
Y0008*
X0158*
X0008Y0158D02*
Y0162D01*
X0012*
Y0158*
X0008*
X0018D02*
Y0162D01*
X0022*
Y0158*
X0018*
X0028D02*
Y0162D01*
X0032*
Y0158*
X0028*
X0038D02*
Y0162D01*
X0042*
Y0158*
X0038*
X0048D02*
Y0162D01*
X0052*
Y0158*
X0048*
X0158D02*
Y0162D01*
X0162*
Y0158*
X0158*
X0168D02*
Y0162D01*
X0172*
Y0158*
X0168*
X0178D02*
Y0162D01*
X0182*
Y0158*
X0178*
X0188D02*
Y0162D01*
X0192*
Y0158*
X0188*
X0198D02*
Y0162D01*
X0202*
Y0158*
X0198*
X0208D02*
Y0162D01*
X0212*
Y0158*
X0208*
X0218D02*
Y0162D01*
X0222*
Y0158*
X0218*
X0228D02*
Y0162D01*
X0232*
Y0158*
X0228*
X0238D02*
Y0162D01*
X0242*
Y0158*
X0238*
X0248D02*
Y0162D01*
X0252*
Y0158*
X0248*
X0058D02*
Y0162D01*
X0062*
Y0158*
X0058*
X0068D02*
Y0162D01*
X0072*
Y0158*
X0068*
X0078D02*
Y0162D01*
X0082*
Y0158*
X0078*
X0088D02*
Y0162D01*
X0092*
Y0158*
X0088*
X0098D02*
Y0162D01*
X0102*
Y0158*
X0098*
X0108D02*
Y0162D01*
X0112*
Y0158*
X0108*
X0118D02*
Y0162D01*
X0122*
Y0158*
X0118*
X0128D02*
Y0162D01*
X0132*
Y0158*
X0128*
X0138D02*
Y0162D01*
X0142*
Y0158*
X0138*
X0148D02*
Y0162D01*
X0152*
Y0158*
X0148*
X0008Y0148D02*
Y0152D01*
X0012*
Y0148*
X0008*
X0018D02*
Y0152D01*
X0022*
Y0148*
X0018*
X0028D02*
Y0152D01*
X0032*
Y0148*
X0028*
X0038D02*
Y0152D01*
X0042*
Y0148*
X0038*
X0048D02*
Y0152D01*
X0052*
Y0148*
X0048*
X0058D02*
Y0152D01*
X0062*
Y0148*
X0058*
X0168D02*
Y0152D01*
X0172*
Y0148*
X0168*
X0178D02*
Y0152D01*
X0182*
Y0148*
X0178*
X0188D02*
Y0152D01*
X0192*
Y0148*
X0188*
X0198D02*
Y0152D01*
X0202*
Y0148*
X0198*
X0208D02*
Y0152D01*
X0212*
Y0148*
X0208*
X0218D02*
Y0152D01*
X0222*
Y0148*
X0218*
X0228D02*
Y0152D01*
X0232*
Y0148*
X0228*
X0238D02*
Y0152D01*
X0242*
Y0148*
X0238*
X0248D02*
Y0152D01*
X0252*
Y0148*
X0248*
X0258D02*
Y0152D01*
X0262*
Y0148*
X0258*
X0068D02*
Y0152D01*
X0072*
Y0148*
X0068*
X0078D02*
Y0152D01*
X0082*
Y0148*
X0078*
X0088D02*
Y0152D01*
X0092*
Y0148*
X0088*
X0098D02*
Y0152D01*
X0102*
Y0148*
X0098*
X0108D02*
Y0152D01*
X0112*
Y0148*
X0108*
X0118D02*
Y0152D01*
X0122*
Y0148*
X0118*
X0128D02*
Y0152D01*
X0132*
Y0148*
X0128*
X0138D02*
Y0152D01*
X0142*
Y0148*
X0138*
X0148D02*
Y0152D01*
X0152*
Y0148*
X0148*
X0158D02*
Y0152D01*
X0162*
Y0148*
X0158*
X0008Y0138D02*
Y0142D01*
X0012*
Y0138*
X0008*
X0018D02*
Y0142D01*
X0022*
Y0138*
X0018*
X0028D02*
Y0142D01*
X0032*
Y0138*
X0028*
X0038D02*
Y0142D01*
X0042*
Y0138*
X0038*
X0048D02*
Y0142D01*
X0052*
Y0138*
X0048*
X0158D02*
Y0142D01*
X0162*
Y0138*
X0158*
X0168D02*
Y0142D01*
X0172*
Y0138*
X0168*
X0178D02*
Y0142D01*
X0182*
Y0138*
X0178*
X0188D02*
Y0142D01*
X0192*
Y0138*
X0188*
X0198D02*
Y0142D01*
X0202*
Y0138*
X0198*
X0208D02*
Y0142D01*
X0212*
Y0138*
X0208*
X0218D02*
Y0142D01*
X0222*
Y0138*
X0218*
X0228D02*
Y0142D01*
X0232*
Y0138*
X0228*
X0238D02*
Y0142D01*
X0242*
Y0138*
X0238*
X0248D02*
Y0142D01*
X0252*
Y0138*
X0248*
X0058D02*
Y0142D01*
X0062*
Y0138*
X0058*
X0068D02*
Y0142D01*
X0072*
Y0138*
X0068*
X0078D02*
Y0142D01*
X0082*
Y0138*
X0078*
X0088D02*
Y0142D01*
X0092*
Y0138*
X0088*
X0098D02*
Y0142D01*
X0102*
Y0138*
X0098*
X0108D02*
Y0142D01*
X0112*
Y0138*
X0108*
X0118D02*
Y0142D01*
X0122*
Y0138*
X0118*
X0128D02*
Y0142D01*
X0132*
Y0138*
X0128*
X0138D02*
Y0142D01*
X0142*
Y0138*
X0138*
X0148D02*
Y0142D01*
X0152*
Y0138*
X0148*
X0008Y0128D02*
Y0132D01*
X0012*
Y0128*
X0008*
X0018D02*
Y0132D01*
X0022*
Y0128*
X0018*
X0028D02*
Y0132D01*
X0032*
Y0128*
X0028*
X0038D02*
Y0132D01*
X0042*
Y0128*
X0038*
X0048D02*
Y0132D01*
X0052*
Y0128*
X0048*
X0058D02*
Y0132D01*
X0062*
Y0128*
X0058*
X0168D02*
Y0132D01*
X0172*
Y0128*
X0168*
X0178D02*
Y0132D01*
X0182*
Y0128*
X0178*
X0188D02*
Y0132D01*
X0192*
Y0128*
X0188*
X0198D02*
Y0132D01*
X0202*
Y0128*
X0198*
X0208D02*
Y0132D01*
X0212*
Y0128*
X0208*
X0218D02*
Y0132D01*
X0222*
Y0128*
X0218*
X0228D02*
Y0132D01*
X0232*
Y0128*
X0228*
X0238D02*
Y0132D01*
X0242*
Y0128*
X0238*
X0248D02*
Y0132D01*
X0252*
Y0128*
X0248*
X0258D02*
Y0132D01*
X0262*
Y0128*
X0258*
X0068D02*
Y0132D01*
X0072*
Y0128*
X0068*
X0078D02*
Y0132D01*
X0082*
Y0128*
X0078*
X0088D02*
Y0132D01*
X0092*
Y0128*
X0088*
X0098D02*
Y0132D01*
X0102*
Y0128*
X0098*
X0108D02*
Y0132D01*
X0112*
Y0128*
X0108*
X0118D02*
Y0132D01*
X0122*
Y0128*
X0118*
X0128D02*
Y0132D01*
X0132*
Y0128*
X0128*
X0138D02*
Y0132D01*
X0142*
Y0128*
X0138*
X0148D02*
Y0132D01*
X0152*
Y0128*
X0148*
X0158D02*
Y0132D01*
X0162*
Y0128*
X0158*
X0008Y0118D02*
Y0122D01*
X0012*
Y0118*
X0008*
X0018D02*
Y0122D01*
X0022*
Y0118*
X0018*
X0028D02*
Y0122D01*
X0032*
Y0118*
X0028*
X0038D02*
Y0122D01*
X0042*
Y0118*
X0038*
X0148D02*
Y0122D01*
X0152*
Y0118*
X0148*
X0158D02*
Y0122D01*
X0162*
Y0118*
X0158*
X0168D02*
Y0122D01*
X0172*
Y0118*
X0168*
X0178D02*
Y0122D01*
X0182*
Y0118*
X0178*
X0188D02*
Y0122D01*
X0192*
Y0118*
X0188*
X0198D02*
Y0122D01*
X0202*
Y0118*
X0198*
X0208D02*
Y0122D01*
X0212*
Y0118*
X0208*
X0218D02*
Y0122D01*
X0222*
Y0118*
X0218*
X0228D02*
Y0122D01*
X0232*
Y0118*
X0228*
X0238D02*
Y0122D01*
X0242*
Y0118*
X0238*
X0048D02*
Y0122D01*
X0052*
Y0118*
X0048*
X0058D02*
Y0122D01*
X0062*
Y0118*
X0058*
X0068D02*
Y0122D01*
X0072*
Y0118*
X0068*
X0078D02*
Y0122D01*
X0082*
Y0118*
X0078*
X0088D02*
Y0122D01*
X0092*
Y0118*
X0088*
X0098D02*
Y0122D01*
X0102*
Y0118*
X0098*
X0108D02*
Y0122D01*
X0112*
Y0118*
X0108*
X0118D02*
Y0122D01*
X0122*
Y0118*
X0118*
X0128D02*
Y0122D01*
X0132*
Y0118*
X0128*
X0138D02*
Y0122D01*
X0142*
Y0118*
X0138*
X0008Y0108D02*
Y0112D01*
X0012*
Y0108*
X0008*
X0018D02*
Y0112D01*
X0022*
Y0108*
X0018*
X0028D02*
Y0112D01*
X0032*
Y0108*
X0028*
X0038D02*
Y0112D01*
X0042*
Y0108*
X0038*
X0148D02*
Y0112D01*
X0152*
Y0108*
X0148*
X0158D02*
Y0112D01*
X0162*
Y0108*
X0158*
X0168D02*
Y0112D01*
X0172*
Y0108*
X0168*
X0178D02*
Y0112D01*
X0182*
Y0108*
X0178*
X0188D02*
Y0112D01*
X0192*
Y0108*
X0188*
X0198D02*
Y0112D01*
X0202*
Y0108*
X0198*
X0208D02*
Y0112D01*
X0212*
Y0108*
X0208*
X0218D02*
Y0112D01*
X0222*
Y0108*
X0218*
X0228D02*
Y0112D01*
X0232*
Y0108*
X0228*
X0238D02*
Y0112D01*
X0242*
Y0108*
X0238*
X0048D02*
Y0112D01*
X0052*
Y0108*
X0048*
X0058D02*
Y0112D01*
X0062*
Y0108*
X0058*
X0068D02*
Y0112D01*
X0072*
Y0108*
X0068*
X0078D02*
Y0112D01*
X0082*
Y0108*
X0078*
X0088D02*
Y0112D01*
X0092*
Y0108*
X0088*
X0098D02*
Y0112D01*
X0102*
Y0108*
X0098*
X0108D02*
Y0112D01*
X0112*
Y0108*
X0108*
X0118D02*
Y0112D01*
X0122*
Y0108*
X0118*
X0128D02*
Y0112D01*
X0132*
Y0108*
X0128*
X0138D02*
Y0112D01*
X0142*
Y0108*
X0138*
X0008Y0098D02*
Y0102D01*
X0012*
Y0098*
X0008*
X0018D02*
Y0102D01*
X0022*
Y0098*
X0018*
X0028D02*
Y0102D01*
X0032*
Y0098*
X0028*
X0038D02*
Y0102D01*
X0042*
Y0098*
X0038*
X0148D02*
Y0102D01*
X0152*
Y0098*
X0148*
X0158D02*
Y0102D01*
X0162*
Y0098*
X0158*
X0168D02*
Y0102D01*
X0172*
Y0098*
X0168*
X0178D02*
Y0102D01*
X0182*
Y0098*
X0178*
X0188D02*
Y0102D01*
X0192*
Y0098*
X0188*
X0198D02*
Y0102D01*
X0202*
Y0098*
X0198*
X0208D02*
Y0102D01*
X0212*
Y0098*
X0208*
X0218D02*
Y0102D01*
X0222*
Y0098*
X0218*
X0228D02*
Y0102D01*
X0232*
Y0098*
X0228*
X0238D02*
Y0102D01*
X0242*
Y0098*
X0238*
X0048D02*
Y0102D01*
X0052*
Y0098*
X0048*
X0058D02*
Y0102D01*
X0062*
Y0098*
X0058*
X0068D02*
Y0102D01*
X0072*
Y0098*
X0068*
X0078D02*
Y0102D01*
X0082*
Y0098*
X0078*
X0088D02*
Y0102D01*
X0092*
Y0098*
X0088*
X0098D02*
Y0102D01*
X0102*
Y0098*
X0098*
X0108D02*
Y0102D01*
X0112*
Y0098*
X0108*
X0118D02*
Y0102D01*
X0122*
Y0098*
X0118*
X0128D02*
Y0102D01*
X0132*
Y0098*
X0128*
X0138D02*
Y0102D01*
X0142*
Y0098*
X0138*
X0008Y0088D02*
Y0092D01*
X0012*
Y0088*
X0008*
X0018D02*
Y0092D01*
X0022*
Y0088*
X0018*
X0028D02*
Y0092D01*
X0032*
Y0088*
X0028*
X0038D02*
Y0092D01*
X0042*
Y0088*
X0038*
X0048D02*
Y0092D01*
X0052*
Y0088*
X0048*
X0058D02*
Y0092D01*
X0062*
Y0088*
X0058*
X0168D02*
Y0092D01*
X0172*
Y0088*
X0168*
X0178D02*
Y0092D01*
X0182*
Y0088*
X0178*
X0188D02*
Y0092D01*
X0192*
Y0088*
X0188*
X0198D02*
Y0092D01*
X0202*
Y0088*
X0198*
X0208D02*
Y0092D01*
X0212*
Y0088*
X0208*
X0218D02*
Y0092D01*
X0222*
Y0088*
X0218*
X0228D02*
Y0092D01*
X0232*
Y0088*
X0228*
X0238D02*
Y0092D01*
X0242*
Y0088*
X0238*
X0248D02*
Y0092D01*
X0252*
Y0088*
X0248*
X0258D02*
Y0092D01*
X0262*
Y0088*
X0258*
X0068D02*
Y0092D01*
X0072*
Y0088*
X0068*
X0078D02*
Y0092D01*
X0082*
Y0088*
X0078*
X0088D02*
Y0092D01*
X0092*
Y0088*
X0088*
X0098D02*
Y0092D01*
X0102*
Y0088*
X0098*
X0108D02*
Y0092D01*
X0112*
Y0088*
X0108*
X0118D02*
Y0092D01*
X0122*
Y0088*
X0118*
X0128D02*
Y0092D01*
X0132*
Y0088*
X0128*
X0138D02*
Y0092D01*
X0142*
Y0088*
X0138*
X0148D02*
Y0092D01*
X0152*
Y0088*
X0148*
X0158D02*
Y0092D01*
X0162*
Y0088*
X0158*
X0008Y0078D02*
Y0082D01*
X0012*
Y0078*
X0008*
X0018D02*
Y0082D01*
X0022*
Y0078*
X0018*
X0028D02*
Y0082D01*
X0032*
Y0078*
X0028*
X0038D02*
Y0082D01*
X0042*
Y0078*
X0038*
X0048D02*
Y0082D01*
X0052*
Y0078*
X0048*
X0058D02*
Y0082D01*
X0062*
Y0078*
X0058*
X0168D02*
Y0082D01*
X0172*
Y0078*
X0168*
X0178D02*
Y0082D01*
X0182*
Y0078*
X0178*
X0188D02*
Y0082D01*
X0192*
Y0078*
X0188*
X0198D02*
Y0082D01*
X0202*
Y0078*
X0198*
X0208D02*
Y0082D01*
X0212*
Y0078*
X0208*
X0218D02*
Y0082D01*
X0222*
Y0078*
X0218*
X0228D02*
Y0082D01*
X0232*
Y0078*
X0228*
X0238D02*
Y0082D01*
X0242*
Y0078*
X0238*
X0248D02*
Y0082D01*
X0252*
Y0078*
X0248*
X0258D02*
Y0082D01*
X0262*
Y0078*
X0258*
X0068D02*
Y0082D01*
X0072*
Y0078*
X0068*
X0078D02*
Y0082D01*
X0082*
Y0078*
X0078*
X0088D02*
Y0082D01*
X0092*
Y0078*
X0088*
X0098D02*
Y0082D01*
X0102*
Y0078*
X0098*
X0108D02*
Y0082D01*
X0112*
Y0078*
X0108*
X0118D02*
Y0082D01*
X0122*
Y0078*
X0118*
X0128D02*
Y0082D01*
X0132*
Y0078*
X0128*
X0138D02*
Y0082D01*
X0142*
Y0078*
X0138*
X0148D02*
Y0082D01*
X0152*
Y0078*
X0148*
X0158D02*
Y0082D01*
X0162*
Y0078*
X0158*
X0008Y0068D02*
Y0072D01*
X0012*
Y0068*
X0008*
X0018D02*
Y0072D01*
X0022*
Y0068*
X0018*
X0028D02*
Y0072D01*
X0032*
Y0068*
X0028*
X0038D02*
Y0072D01*
X0042*
Y0068*
X0038*
X0048D02*
Y0072D01*
X0052*
Y0068*
X0048*
X0058D02*
Y0072D01*
X0062*
Y0068*
X0058*
X0168D02*
Y0072D01*
X0172*
Y0068*
X0168*
X0178D02*
Y0072D01*
X0182*
Y0068*
X0178*
X0188D02*
Y0072D01*
X0192*
Y0068*
X0188*
X0198D02*
Y0072D01*
X0202*
Y0068*
X0198*
X0208D02*
Y0072D01*
X0212*
Y0068*
X0208*
X0218D02*
Y0072D01*
X0222*
Y0068*
X0218*
X0228D02*
Y0072D01*
X0232*
Y0068*
X0228*
X0238D02*
Y0072D01*
X0242*
Y0068*
X0238*
X0248D02*
Y0072D01*
X0252*
Y0068*
X0248*
X0258D02*
Y0072D01*
X0262*
Y0068*
X0258*
X0068D02*
Y0072D01*
X0072*
Y0068*
X0068*
X0078D02*
Y0072D01*
X0082*
Y0068*
X0078*
X0088D02*
Y0072D01*
X0092*
Y0068*
X0088*
X0098D02*
Y0072D01*
X0102*
Y0068*
X0098*
X0108D02*
Y0072D01*
X0112*
Y0068*
X0108*
X0118D02*
Y0072D01*
X0122*
Y0068*
X0118*
X0128D02*
Y0072D01*
X0132*
Y0068*
X0128*
X0138D02*
Y0072D01*
X0142*
Y0068*
X0138*
X0148D02*
Y0072D01*
X0152*
Y0068*
X0148*
X0158D02*
Y0072D01*
X0162*
Y0068*
X0158*
X0008Y0058D02*
Y0062D01*
X0012*
Y0058*
X0008*
X0018D02*
Y0062D01*
X0022*
Y0058*
X0018*
X0028D02*
Y0062D01*
X0032*
Y0058*
X0028*
X0038D02*
Y0062D01*
X0042*
Y0058*
X0038*
X0048D02*
Y0062D01*
X0052*
Y0058*
X0048*
X0058D02*
Y0062D01*
X0062*
Y0058*
X0058*
X0168D02*
Y0062D01*
X0172*
Y0058*
X0168*
X0178D02*
Y0062D01*
X0182*
Y0058*
X0178*
X0188D02*
Y0062D01*
X0192*
Y0058*
X0188*
X0198D02*
Y0062D01*
X0202*
Y0058*
X0198*
X0208D02*
Y0062D01*
X0212*
Y0058*
X0208*
X0218D02*
Y0062D01*
X0222*
Y0058*
X0218*
X0228D02*
Y0062D01*
X0232*
Y0058*
X0228*
X0238D02*
Y0062D01*
X0242*
Y0058*
X0238*
X0248D02*
Y0062D01*
X0252*
Y0058*
X0248*
X0258D02*
Y0062D01*
X0262*
Y0058*
X0258*
X0068D02*
Y0062D01*
X0072*
Y0058*
X0068*
X0078D02*
Y0062D01*
X0082*
Y0058*
X0078*
X0088D02*
Y0062D01*
X0092*
Y0058*
X0088*
X0098D02*
Y0062D01*
X0102*
Y0058*
X0098*
X0108D02*
Y0062D01*
X0112*
Y0058*
X0108*
X0118D02*
Y0062D01*
X0122*
Y0058*
X0118*
X0128D02*
Y0062D01*
X0132*
Y0058*
X0128*
X0138D02*
Y0062D01*
X0142*
Y0058*
X0138*
X0148D02*
Y0062D01*
X0152*
Y0058*
X0148*
X0158D02*
Y0062D01*
X0162*
Y0058*
X0158*
X0008Y0048D02*
Y0052D01*
X0012*
Y0048*
X0008*
X0018D02*
Y0052D01*
X0022*
Y0048*
X0018*
X0028D02*
Y0052D01*
X0032*
Y0048*
X0028*
X0038D02*
Y0052D01*
X0042*
Y0048*
X0038*
X0048D02*
Y0052D01*
X0052*
Y0048*
X0048*
X0058D02*
Y0052D01*
X0062*
Y0048*
X0058*
X0168D02*
Y0052D01*
X0172*
Y0048*
X0168*
X0178D02*
Y0052D01*
X0182*
Y0048*
X0178*
X0188D02*
Y0052D01*
X0192*
Y0048*
X0188*
X0198D02*
Y0052D01*
X0202*
Y0048*
X0198*
X0208D02*
Y0052D01*
X0212*
Y0048*
X0208*
X0218D02*
Y0052D01*
X0222*
Y0048*
X0218*
X0228D02*
Y0052D01*
X0232*
Y0048*
X0228*
X0238D02*
Y0052D01*
X0242*
Y0048*
X0238*
X0248D02*
Y0052D01*
X0252*
Y0048*
X0248*
X0258D02*
Y0052D01*
X0262*
Y0048*
X0258*
X0068D02*
Y0052D01*
X0072*
Y0048*
X0068*
X0078D02*
Y0052D01*
X0082*
Y0048*
X0078*
X0088D02*
Y0052D01*
X0092*
Y0048*
X0088*
X0098D02*
Y0052D01*
X0102*
Y0048*
X0098*
X0108D02*
Y0052D01*
X0112*
Y0048*
X0108*
X0118D02*
Y0052D01*
X0122*
Y0048*
X0118*
X0128D02*
Y0052D01*
X0132*
Y0048*
X0128*
X0138D02*
Y0052D01*
X0142*
Y0048*
X0138*
X0148D02*
Y0052D01*
X0152*
Y0048*
X0148*
X0158D02*
Y0052D01*
X0162*
Y0048*
X0158*
X0068Y0038D02*
Y0042D01*
X0072*
Y0038*
X0068*
X0078D02*
Y0042D01*
X0082*
Y0038*
X0078*
X0088D02*
Y0042D01*
X0092*
Y0038*
X0088*
X0098D02*
Y0042D01*
X0102*
Y0038*
X0098*
X0108D02*
Y0042D01*
X0112*
Y0038*
X0108*
X0118D02*
Y0042D01*
X0122*
Y0038*
X0118*
X0128D02*
Y0042D01*
X0132*
Y0038*
X0128*
X0138D02*
Y0042D01*
X0142*
Y0038*
X0138*
X0148D02*
Y0042D01*
X0152*
Y0038*
X0148*
X0158D02*
Y0042D01*
X0162*
Y0038*
X0158*
X0168D02*
Y0042D01*
X0172*
Y0038*
X0168*
X0178D02*
Y0042D01*
X0182*
Y0038*
X0178*
X0188D02*
Y0042D01*
X0192*
Y0038*
X0188*
X0198D02*
Y0042D01*
X0202*
Y0038*
X0198*
X0208D02*
Y0042D01*
X0212*
Y0038*
X0208*
X0218D02*
Y0042D01*
X0222*
Y0038*
X0218*
X0228D02*
Y0042D01*
X0232*
Y0038*
X0228*
X0238D02*
Y0042D01*
X0242*
Y0038*
X0238*
X0248D02*
Y0042D01*
X0252*
Y0038*
X0248*
X0258D02*
Y0042D01*
X0262*
Y0038*
X0258*
X0248Y0028D02*
Y0032D01*
X0252*
Y0028*
X0248*
X0238D02*
Y0032D01*
X0242*
Y0028*
X0238*
X0228D02*
Y0032D01*
X0232*
Y0028*
X0228*
X0218D02*
Y0032D01*
X0222*
Y0028*
X0218*
X0208D02*
Y0032D01*
X0212*
Y0028*
X0208*
X0198D02*
Y0032D01*
X0202*
Y0028*
X0198*
X0248Y0008D02*
Y0012D01*
X0252*
Y0008*
X0248*
X0238D02*
Y0012D01*
X0242*
Y0008*
X0238*
X0228D02*
Y0012D01*
X0232*
Y0008*
X0228*
X0218D02*
Y0012D01*
X0222*
Y0008*
X0218*
X0208D02*
Y0012D01*
X0212*
Y0008*
X0208*
X0198D02*
Y0012D01*
X0202*
Y0008*
X0198*
X0008Y0038D02*
Y0042D01*
X0012*
Y0038*
X0008*
X0018D02*
Y0042D01*
X0022*
Y0038*
X0018*
X0028D02*
Y0042D01*
X0032*
Y0038*
X0028*
X0038D02*
Y0042D01*
X0042*
Y0038*
X0038*
X0048D02*
Y0042D01*
X0052*
Y0038*
X0048*
X0058D02*
Y0042D01*
X0062*
Y0038*
X0058*
X026Y0028D02*
X0258Y0032D01*
X0262*
X026Y0028*
Y0138D02*
X0258Y0142D01*
X0262*
X026Y0138*
X0055Y0008D02*
X0053Y0012D01*
X0057*
X0055Y0008*
X006Y0198D02*
X0058Y0202D01*
X0062*
X006Y0198*
G54D29*
X02625Y00998D02*
D01*
X02625Y00999*
X02625Y01*
X02625Y01002*
X02624Y01003*
X02624Y01004*
X02623Y01006*
X02623Y01007*
X02622Y01008*
X02621Y01009*
X0262Y0101*
X02619Y01011*
X02618Y01012*
X02617Y01013*
X02616Y01014*
X02615Y01015*
X02614Y01016*
X02613Y01016*
X02611Y01017*
X0261Y01017*
X02608Y01017*
X02607Y01017*
X02606Y01018*
X02604*
X02603Y01017*
X02602Y01017*
X026Y01017*
X02599Y01017*
X02598Y01016*
X02596Y01016*
X02595Y01015*
X02594Y01014*
X02593Y01013*
X02592Y01012*
X02591Y01011*
X0259Y0101*
X02589Y01009*
X02588Y01008*
X02587Y01007*
X02587Y01006*
X02586Y01004*
X02586Y01003*
X02585Y01002*
X02585Y01*
X02585Y00999*
X02585Y00998*
X02585Y00996*
X02585Y00995*
X02585Y00993*
X02586Y00992*
X02586Y00991*
X02587Y00989*
X02587Y00988*
X02588Y00987*
X02589Y00986*
X0259Y00985*
X02591Y00984*
X02592Y00983*
X02593Y00982*
X02594Y00981*
X02595Y0098*
X02596Y0098*
X02598Y00979*
X02599Y00979*
X026Y00978*
X02602Y00978*
X02603Y00978*
X02604Y00978*
X02606*
X02607Y00978*
X02608Y00978*
X0261Y00978*
X02611Y00979*
X02613Y00979*
X02614Y0098*
X02615Y0098*
X02616Y00981*
X02617Y00982*
X02618Y00983*
X02619Y00984*
X0262Y00985*
X02621Y00986*
X02622Y00987*
X02623Y00988*
X02623Y00989*
X02624Y00991*
X02624Y00992*
X02625Y00993*
X02625Y00995*
X02625Y00996*
X02625Y00998*
X02525D02*
D01*
X02525Y00999*
X02525Y01*
X02525Y01002*
X02524Y01003*
X02524Y01004*
X02523Y01006*
X02523Y01007*
X02522Y01008*
X02521Y01009*
X0252Y0101*
X02519Y01011*
X02518Y01012*
X02517Y01013*
X02516Y01014*
X02515Y01015*
X02514Y01016*
X02513Y01016*
X02511Y01017*
X0251Y01017*
X02508Y01017*
X02507Y01017*
X02506Y01018*
X02504*
X02503Y01017*
X02502Y01017*
X025Y01017*
X02499Y01017*
X02498Y01016*
X02496Y01016*
X02495Y01015*
X02494Y01014*
X02493Y01013*
X02492Y01012*
X02491Y01011*
X0249Y0101*
X02489Y01009*
X02488Y01008*
X02487Y01007*
X02487Y01006*
X02486Y01004*
X02486Y01003*
X02485Y01002*
X02485Y01*
X02485Y00999*
X02485Y00998*
X02485Y00996*
X02485Y00995*
X02485Y00993*
X02486Y00992*
X02486Y00991*
X02487Y00989*
X02487Y00988*
X02488Y00987*
X02489Y00986*
X0249Y00985*
X02491Y00984*
X02492Y00983*
X02493Y00982*
X02494Y00981*
X02495Y0098*
X02496Y0098*
X02498Y00979*
X02499Y00979*
X025Y00978*
X02502Y00978*
X02503Y00978*
X02504Y00978*
X02506*
X02507Y00978*
X02508Y00978*
X0251Y00978*
X02511Y00979*
X02513Y00979*
X02514Y0098*
X02515Y0098*
X02516Y00981*
X02517Y00982*
X02518Y00983*
X02519Y00984*
X0252Y00985*
X02521Y00986*
X02522Y00987*
X02523Y00988*
X02523Y00989*
X02524Y00991*
X02524Y00992*
X02525Y00993*
X02525Y00995*
X02525Y00996*
X02525Y00998*
X02625Y01098D02*
D01*
X02625Y01099*
X02625Y011*
X02625Y01102*
X02624Y01103*
X02624Y01104*
X02623Y01106*
X02623Y01107*
X02622Y01108*
X02621Y01109*
X0262Y0111*
X02619Y01111*
X02618Y01112*
X02617Y01113*
X02616Y01114*
X02615Y01115*
X02614Y01116*
X02613Y01116*
X02611Y01117*
X0261Y01117*
X02608Y01117*
X02607Y01117*
X02606Y01118*
X02604*
X02603Y01117*
X02602Y01117*
X026Y01117*
X02599Y01117*
X02598Y01116*
X02596Y01116*
X02595Y01115*
X02594Y01114*
X02593Y01113*
X02592Y01112*
X02591Y01111*
X0259Y0111*
X02589Y01109*
X02588Y01108*
X02587Y01107*
X02587Y01106*
X02586Y01104*
X02586Y01103*
X02585Y01102*
X02585Y011*
X02585Y01099*
X02585Y01098*
X02585Y01096*
X02585Y01095*
X02585Y01093*
X02586Y01092*
X02586Y01091*
X02587Y01089*
X02587Y01088*
X02588Y01087*
X02589Y01086*
X0259Y01085*
X02591Y01084*
X02592Y01083*
X02593Y01082*
X02594Y01081*
X02595Y0108*
X02596Y0108*
X02598Y01079*
X02599Y01079*
X026Y01078*
X02602Y01078*
X02603Y01078*
X02604Y01078*
X02606*
X02607Y01078*
X02608Y01078*
X0261Y01078*
X02611Y01079*
X02613Y01079*
X02614Y0108*
X02615Y0108*
X02616Y01081*
X02617Y01082*
X02618Y01083*
X02619Y01084*
X0262Y01085*
X02621Y01086*
X02622Y01087*
X02623Y01088*
X02623Y01089*
X02624Y01091*
X02624Y01092*
X02625Y01093*
X02625Y01095*
X02625Y01096*
X02625Y01098*
X02525D02*
D01*
X02525Y01099*
X02525Y011*
X02525Y01102*
X02524Y01103*
X02524Y01104*
X02523Y01106*
X02523Y01107*
X02522Y01108*
X02521Y01109*
X0252Y0111*
X02519Y01111*
X02518Y01112*
X02517Y01113*
X02516Y01114*
X02515Y01115*
X02514Y01116*
X02513Y01116*
X02511Y01117*
X0251Y01117*
X02508Y01117*
X02507Y01117*
X02506Y01118*
X02504*
X02503Y01117*
X02502Y01117*
X025Y01117*
X02499Y01117*
X02498Y01116*
X02496Y01116*
X02495Y01115*
X02494Y01114*
X02493Y01113*
X02492Y01112*
X02491Y01111*
X0249Y0111*
X02489Y01109*
X02488Y01108*
X02487Y01107*
X02487Y01106*
X02486Y01104*
X02486Y01103*
X02485Y01102*
X02485Y011*
X02485Y01099*
X02485Y01098*
X02485Y01096*
X02485Y01095*
X02485Y01093*
X02486Y01092*
X02486Y01091*
X02487Y01089*
X02487Y01088*
X02488Y01087*
X02489Y01086*
X0249Y01085*
X02491Y01084*
X02492Y01083*
X02493Y01082*
X02494Y01081*
X02495Y0108*
X02496Y0108*
X02498Y01079*
X02499Y01079*
X025Y01078*
X02502Y01078*
X02503Y01078*
X02504Y01078*
X02506*
X02507Y01078*
X02508Y01078*
X0251Y01078*
X02511Y01079*
X02513Y01079*
X02514Y0108*
X02515Y0108*
X02516Y01081*
X02517Y01082*
X02518Y01083*
X02519Y01084*
X0252Y01085*
X02521Y01086*
X02522Y01087*
X02523Y01088*
X02523Y01089*
X02524Y01091*
X02524Y01092*
X02525Y01093*
X02525Y01095*
X02525Y01096*
X02525Y01098*
X02625Y01198D02*
D01*
X02625Y01199*
X02625Y012*
X02625Y01202*
X02624Y01203*
X02624Y01204*
X02623Y01206*
X02623Y01207*
X02622Y01208*
X02621Y01209*
X0262Y0121*
X02619Y01211*
X02618Y01212*
X02617Y01213*
X02616Y01214*
X02615Y01215*
X02614Y01216*
X02613Y01216*
X02611Y01217*
X0261Y01217*
X02608Y01217*
X02607Y01217*
X02606Y01218*
X02604*
X02603Y01217*
X02602Y01217*
X026Y01217*
X02599Y01217*
X02598Y01216*
X02596Y01216*
X02595Y01215*
X02594Y01214*
X02593Y01213*
X02592Y01212*
X02591Y01211*
X0259Y0121*
X02589Y01209*
X02588Y01208*
X02587Y01207*
X02587Y01206*
X02586Y01204*
X02586Y01203*
X02585Y01202*
X02585Y012*
X02585Y01199*
X02585Y01198*
X02585Y01196*
X02585Y01195*
X02585Y01193*
X02586Y01192*
X02586Y01191*
X02587Y01189*
X02587Y01188*
X02588Y01187*
X02589Y01186*
X0259Y01185*
X02591Y01184*
X02592Y01183*
X02593Y01182*
X02594Y01181*
X02595Y0118*
X02596Y0118*
X02598Y01179*
X02599Y01179*
X026Y01178*
X02602Y01178*
X02603Y01178*
X02604Y01178*
X02606*
X02607Y01178*
X02608Y01178*
X0261Y01178*
X02611Y01179*
X02613Y01179*
X02614Y0118*
X02615Y0118*
X02616Y01181*
X02617Y01182*
X02618Y01183*
X02619Y01184*
X0262Y01185*
X02621Y01186*
X02622Y01187*
X02623Y01188*
X02623Y01189*
X02624Y01191*
X02624Y01192*
X02625Y01193*
X02625Y01195*
X02625Y01196*
X02625Y01198*
X02525D02*
D01*
X02525Y01199*
X02525Y012*
X02525Y01202*
X02524Y01203*
X02524Y01204*
X02523Y01206*
X02523Y01207*
X02522Y01208*
X02521Y01209*
X0252Y0121*
X02519Y01211*
X02518Y01212*
X02517Y01213*
X02516Y01214*
X02515Y01215*
X02514Y01216*
X02513Y01216*
X02511Y01217*
X0251Y01217*
X02508Y01217*
X02507Y01217*
X02506Y01218*
X02504*
X02503Y01217*
X02502Y01217*
X025Y01217*
X02499Y01217*
X02498Y01216*
X02496Y01216*
X02495Y01215*
X02494Y01214*
X02493Y01213*
X02492Y01212*
X02491Y01211*
X0249Y0121*
X02489Y01209*
X02488Y01208*
X02487Y01207*
X02487Y01206*
X02486Y01204*
X02486Y01203*
X02485Y01202*
X02485Y012*
X02485Y01199*
X02485Y01198*
X02485Y01196*
X02485Y01195*
X02485Y01193*
X02486Y01192*
X02486Y01191*
X02487Y01189*
X02487Y01188*
X02488Y01187*
X02489Y01186*
X0249Y01185*
X02491Y01184*
X02492Y01183*
X02493Y01182*
X02494Y01181*
X02495Y0118*
X02496Y0118*
X02498Y01179*
X02499Y01179*
X025Y01178*
X02502Y01178*
X02503Y01178*
X02504Y01178*
X02506*
X02507Y01178*
X02508Y01178*
X0251Y01178*
X02511Y01179*
X02513Y01179*
X02514Y0118*
X02515Y0118*
X02516Y01181*
X02517Y01182*
X02518Y01183*
X02519Y01184*
X0252Y01185*
X02521Y01186*
X02522Y01187*
X02523Y01188*
X02523Y01189*
X02524Y01191*
X02524Y01192*
X02525Y01193*
X02525Y01195*
X02525Y01196*
X02525Y01198*
M02*