%FSTAX23Y23*%
%MOIN*%
%SFA1B1*%

%IPPOS*%
%ADD18C,0.005000*%
%LN451PCB-COM_Arduino_ProtoShield_Board_v1_drillmap*%
%LPD*%
G54D18*
X0108Y002D02*
X01119D01*
X011Y0018D02*
Y00219D01*
X0162Y018D02*
X01659D01*
X0164Y0178D02*
Y01819D01*
X0152Y018D02*
X01559D01*
X0154Y0178D02*
Y01819D01*
X0142Y018D02*
X01459D01*
X0144Y0178D02*
Y01819D01*
X0132Y018D02*
X01359D01*
X0134Y0178D02*
Y01819D01*
X0122Y018D02*
X01259D01*
X0124Y0178D02*
Y01819D01*
X0112Y018D02*
X01159D01*
X0114Y0178D02*
Y01819D01*
X0102Y018D02*
X01059D01*
X0104Y0178D02*
Y01819D01*
X0092Y018D02*
X00959D01*
X0094Y0178D02*
Y01819D01*
X0082Y018D02*
X00859D01*
X0084Y0178D02*
Y01819D01*
X0072Y018D02*
X00759D01*
X0074Y0178D02*
Y01819D01*
X0162Y02D02*
X01659D01*
X0164Y0198D02*
Y02019D01*
X0152Y02D02*
X01559D01*
X0154Y0198D02*
Y02019D01*
X0142Y02D02*
X01459D01*
X0144Y0198D02*
Y02019D01*
X0132Y02D02*
X01359D01*
X0134Y0198D02*
Y02019D01*
X0122Y02D02*
X01259D01*
X0124Y0198D02*
Y02019D01*
X0112Y02D02*
X01159D01*
X0114Y0198D02*
Y02019D01*
X0102Y02D02*
X01059D01*
X0104Y0198D02*
Y02019D01*
X0092Y02D02*
X00959D01*
X0094Y0198D02*
Y02019D01*
X0082Y02D02*
X00859D01*
X0084Y0198D02*
Y02019D01*
X0072Y02D02*
X00759D01*
X0074Y0198D02*
Y02019D01*
X0008Y001D02*
X00119D01*
X001Y0008D02*
Y00119D01*
X0018Y001D02*
X00219D01*
X002Y0008D02*
Y00119D01*
X0028Y001D02*
X00319D01*
X003Y0008D02*
Y00119D01*
X0038Y001D02*
X00419D01*
X004Y0008D02*
Y00119D01*
X0048Y001D02*
X00519D01*
X0058D02*
X00619D01*
X0068D02*
X00719D01*
X007Y0008D02*
Y00119D01*
X0078Y001D02*
X00819D01*
X008Y0008D02*
Y00119D01*
X0088Y001D02*
X00919D01*
X009Y0008D02*
Y00119D01*
X0098Y001D02*
X01019D01*
X01Y0008D02*
Y00119D01*
X0008Y02D02*
X00119D01*
X001Y0198D02*
Y02019D01*
X0018Y02D02*
X00219D01*
X002Y0198D02*
Y02019D01*
X0028Y02D02*
X00319D01*
X003Y0198D02*
Y02019D01*
X0038Y02D02*
X00419D01*
X004Y0198D02*
Y02019D01*
X0048Y02D02*
X00519D01*
X005Y0198D02*
Y02019D01*
X0008Y019D02*
X00119D01*
X001Y0188D02*
Y01919D01*
X0018Y019D02*
X00219D01*
X002Y0188D02*
Y01919D01*
X0028Y019D02*
X00319D01*
X003Y0188D02*
Y01919D01*
X0038Y019D02*
X00419D01*
X004Y0188D02*
Y01919D01*
X0048Y019D02*
X00519D01*
X005Y0188D02*
Y01919D01*
X0058Y019D02*
X00619D01*
X006Y0188D02*
Y01919D01*
X0008Y018D02*
X00119D01*
X001Y0178D02*
Y01819D01*
X0018Y018D02*
X00219D01*
X002Y0178D02*
Y01819D01*
X0028Y018D02*
X00319D01*
X003Y0178D02*
Y01819D01*
X0038Y018D02*
X00419D01*
X004Y0178D02*
Y01819D01*
X0048Y018D02*
X00519D01*
X005Y0178D02*
Y01819D01*
X0058Y018D02*
X00619D01*
X006Y0178D02*
Y01819D01*
X0008Y002D02*
X00119D01*
X001Y0018D02*
Y00219D01*
X0018Y002D02*
X00219D01*
X002Y0018D02*
Y00219D01*
X0028Y002D02*
X00319D01*
X003Y0018D02*
Y00219D01*
X0038Y002D02*
X00419D01*
X004Y0018D02*
Y00219D01*
X0048Y002D02*
X00519D01*
X005Y0018D02*
Y00219D01*
X0058Y002D02*
X00619D01*
X006Y0018D02*
Y00219D01*
X0068Y002D02*
X00719D01*
X007Y0018D02*
Y00219D01*
X0078Y002D02*
X00819D01*
X008Y0018D02*
Y00219D01*
X0088Y002D02*
X00919D01*
X009Y0018D02*
Y00219D01*
X0098Y002D02*
X01019D01*
X01Y0018D02*
Y00219D01*
X0008Y003D02*
X00119D01*
X001Y0028D02*
Y00319D01*
X0018Y003D02*
X00219D01*
X002Y0028D02*
Y00319D01*
X0028Y003D02*
X00319D01*
X003Y0028D02*
Y00319D01*
X0038Y003D02*
X00419D01*
X004Y0028D02*
Y00319D01*
X0048Y003D02*
X00519D01*
X005Y0028D02*
Y00319D01*
X0058Y003D02*
X00619D01*
X006Y0028D02*
Y00319D01*
X0068Y003D02*
X00719D01*
X007Y0028D02*
Y00319D01*
X0078Y003D02*
X00819D01*
X008Y0028D02*
Y00319D01*
X0088Y003D02*
X00919D01*
X009Y0028D02*
Y00319D01*
X0098Y003D02*
X01019D01*
X01Y0028D02*
Y00319D01*
X0058Y017D02*
X00619D01*
X006Y0168D02*
Y01719D01*
X0068Y017D02*
X00719D01*
X007Y0168D02*
Y01719D01*
X0078Y017D02*
X00819D01*
X008Y0168D02*
Y01719D01*
X0088Y017D02*
X00919D01*
X009Y0168D02*
Y01719D01*
X0098Y017D02*
X01019D01*
X01Y0168D02*
Y01719D01*
X0108Y017D02*
X01119D01*
X011Y0168D02*
Y01719D01*
X0118Y017D02*
X01219D01*
X012Y0168D02*
Y01719D01*
X0128Y017D02*
X01319D01*
X013Y0168D02*
Y01719D01*
X0138Y017D02*
X01419D01*
X014Y0168D02*
Y01719D01*
X0148Y017D02*
X01519D01*
X015Y0168D02*
Y01719D01*
X0158Y017D02*
X01619D01*
X016Y0168D02*
Y01719D01*
X0168Y017D02*
X01719D01*
X017Y0168D02*
Y01719D01*
X0178Y017D02*
X01819D01*
X018Y0168D02*
Y01719D01*
X0188Y017D02*
X01919D01*
X019Y0168D02*
Y01719D01*
X0198Y017D02*
X02019D01*
X02Y0168D02*
Y01719D01*
X0208Y017D02*
X02119D01*
X021Y0168D02*
Y01719D01*
X0218Y017D02*
X02219D01*
X022Y0168D02*
Y01719D01*
X0228Y017D02*
X02319D01*
X023Y0168D02*
Y01719D01*
X0238Y017D02*
X02419D01*
X024Y0168D02*
Y01719D01*
X0248Y017D02*
X02519D01*
X025Y0168D02*
Y01719D01*
X0008Y017D02*
X00119D01*
X001Y0168D02*
Y01719D01*
X0018Y017D02*
X00219D01*
X002Y0168D02*
Y01719D01*
X0028Y017D02*
X00319D01*
X003Y0168D02*
Y01719D01*
X0038Y017D02*
X00419D01*
X004Y0168D02*
Y01719D01*
X0048Y017D02*
X00519D01*
X005Y0168D02*
Y01719D01*
X0228Y018D02*
X02319D01*
X023Y0178D02*
Y01819D01*
X0238Y018D02*
X02419D01*
X024Y0178D02*
Y01819D01*
X0178Y018D02*
X01819D01*
X018Y0178D02*
Y01819D01*
X0248Y018D02*
X02519D01*
X025Y0178D02*
Y01819D01*
X0208Y018D02*
X02119D01*
X021Y0178D02*
Y01819D01*
X0198Y018D02*
X02019D01*
X02Y0178D02*
Y01819D01*
X0188Y018D02*
X01919D01*
X019Y0178D02*
Y01819D01*
X0218Y018D02*
X02219D01*
X022Y0178D02*
Y01819D01*
X0228Y02D02*
X02319D01*
X023Y0198D02*
Y02019D01*
X0238Y02D02*
X02419D01*
X024Y0198D02*
Y02019D01*
X0178Y02D02*
X01819D01*
X018Y0198D02*
Y02019D01*
X0248Y02D02*
X02519D01*
X025Y0198D02*
Y02019D01*
X0208Y02D02*
X02119D01*
X021Y0198D02*
Y02019D01*
X0198Y02D02*
X02019D01*
X02Y0198D02*
Y02019D01*
X0188Y02D02*
X01919D01*
X019Y0198D02*
Y02019D01*
X0218Y02D02*
X02219D01*
X022Y0198D02*
Y02019D01*
X0148Y003D02*
X01519D01*
X015Y0028D02*
Y00319D01*
X0118Y003D02*
X01219D01*
X012Y0028D02*
Y00319D01*
X0128Y003D02*
X01319D01*
X013Y0028D02*
Y00319D01*
X0138Y003D02*
X01419D01*
X014Y0028D02*
Y00319D01*
X0178Y003D02*
X01819D01*
X018Y0028D02*
Y00319D01*
X0108Y003D02*
X01119D01*
X011Y0028D02*
Y00319D01*
X0168Y003D02*
X01719D01*
X017Y0028D02*
Y00319D01*
X0158Y003D02*
X01619D01*
X016Y0028D02*
Y00319D01*
X0148Y001D02*
X01519D01*
X015Y0008D02*
Y00119D01*
X0118Y001D02*
X01219D01*
X012Y0008D02*
Y00119D01*
X0128Y001D02*
X01319D01*
X013Y0008D02*
Y00119D01*
X0138Y001D02*
X01419D01*
X014Y0008D02*
Y00119D01*
X0178Y001D02*
X01819D01*
X018Y0008D02*
Y00119D01*
X0108Y001D02*
X01119D01*
X011Y0008D02*
Y00119D01*
X0168Y001D02*
X01719D01*
X017Y0008D02*
Y00119D01*
X0158Y001D02*
X01619D01*
X016Y0008D02*
Y00119D01*
X02587Y00998D02*
X02623D01*
X02605Y0098D02*
Y01015D01*
X02487Y00998D02*
X02523D01*
X02505Y0098D02*
Y01015D01*
X02587Y01098D02*
X02623D01*
X02605Y0108D02*
Y01115D01*
X02487Y01098D02*
X02523D01*
X02505Y0108D02*
Y01115D01*
X02587Y01198D02*
X02623D01*
X02605Y0118D02*
Y01215D01*
X02487Y01198D02*
X02523D01*
X02505Y0118D02*
Y01215D01*
X0008Y016D02*
X00119D01*
X001Y0158D02*
Y01619D01*
X0018Y016D02*
X00219D01*
X002Y0158D02*
Y01619D01*
X0028Y016D02*
X00319D01*
X003Y0158D02*
Y01619D01*
X0038Y016D02*
X00419D01*
X004Y0158D02*
Y01619D01*
X0048Y016D02*
X00519D01*
X005Y0158D02*
Y01619D01*
X0158Y016D02*
X01619D01*
X016Y0158D02*
Y01619D01*
X0168Y016D02*
X01719D01*
X017Y0158D02*
Y01619D01*
X0178Y016D02*
X01819D01*
X018Y0158D02*
Y01619D01*
X0188Y016D02*
X01919D01*
X019Y0158D02*
Y01619D01*
X0198Y016D02*
X02019D01*
X02Y0158D02*
Y01619D01*
X0208Y016D02*
X02119D01*
X021Y0158D02*
Y01619D01*
X0218Y016D02*
X02219D01*
X022Y0158D02*
Y01619D01*
X0228Y016D02*
X02319D01*
X023Y0158D02*
Y01619D01*
X0238Y016D02*
X02419D01*
X024Y0158D02*
Y01619D01*
X0248Y016D02*
X02519D01*
X025Y0158D02*
Y01619D01*
X0058Y016D02*
X00619D01*
X006Y0158D02*
Y01619D01*
X0068Y016D02*
X00719D01*
X007Y0158D02*
Y01619D01*
X0078Y016D02*
X00819D01*
X008Y0158D02*
Y01619D01*
X0088Y016D02*
X00919D01*
X009Y0158D02*
Y01619D01*
X0098Y016D02*
X01019D01*
X01Y0158D02*
Y01619D01*
X0108Y016D02*
X01119D01*
X011Y0158D02*
Y01619D01*
X0118Y016D02*
X01219D01*
X012Y0158D02*
Y01619D01*
X0128Y016D02*
X01319D01*
X013Y0158D02*
Y01619D01*
X0138Y016D02*
X01419D01*
X014Y0158D02*
Y01619D01*
X0148Y016D02*
X01519D01*
X015Y0158D02*
Y01619D01*
X0008Y015D02*
X00119D01*
X001Y0148D02*
Y01519D01*
X0018Y015D02*
X00219D01*
X002Y0148D02*
Y01519D01*
X0028Y015D02*
X00319D01*
X003Y0148D02*
Y01519D01*
X0038Y015D02*
X00419D01*
X004Y0148D02*
Y01519D01*
X0048Y015D02*
X00519D01*
X005Y0148D02*
Y01519D01*
X0058Y015D02*
X00619D01*
X006Y0148D02*
Y01519D01*
X0168Y015D02*
X01719D01*
X017Y0148D02*
Y01519D01*
X0178Y015D02*
X01819D01*
X018Y0148D02*
Y01519D01*
X0188Y015D02*
X01919D01*
X019Y0148D02*
Y01519D01*
X0198Y015D02*
X02019D01*
X02Y0148D02*
Y01519D01*
X0208Y015D02*
X02119D01*
X021Y0148D02*
Y01519D01*
X0218Y015D02*
X02219D01*
X022Y0148D02*
Y01519D01*
X0228Y015D02*
X02319D01*
X023Y0148D02*
Y01519D01*
X0238Y015D02*
X02419D01*
X024Y0148D02*
Y01519D01*
X0248Y015D02*
X02519D01*
X025Y0148D02*
Y01519D01*
X0258Y015D02*
X02619D01*
X026Y0148D02*
Y01519D01*
X0068Y015D02*
X00719D01*
X007Y0148D02*
Y01519D01*
X0078Y015D02*
X00819D01*
X008Y0148D02*
Y01519D01*
X0088Y015D02*
X00919D01*
X009Y0148D02*
Y01519D01*
X0098Y015D02*
X01019D01*
X01Y0148D02*
Y01519D01*
X0108Y015D02*
X01119D01*
X011Y0148D02*
Y01519D01*
X0118Y015D02*
X01219D01*
X012Y0148D02*
Y01519D01*
X0128Y015D02*
X01319D01*
X013Y0148D02*
Y01519D01*
X0138Y015D02*
X01419D01*
X014Y0148D02*
Y01519D01*
X0148Y015D02*
X01519D01*
X015Y0148D02*
Y01519D01*
X0158Y015D02*
X01619D01*
X016Y0148D02*
Y01519D01*
X0008Y014D02*
X00119D01*
X001Y0138D02*
Y01419D01*
X0018Y014D02*
X00219D01*
X002Y0138D02*
Y01419D01*
X0028Y014D02*
X00319D01*
X003Y0138D02*
Y01419D01*
X0038Y014D02*
X00419D01*
X004Y0138D02*
Y01419D01*
X0048Y014D02*
X00519D01*
X005Y0138D02*
Y01419D01*
X0158Y014D02*
X01619D01*
X016Y0138D02*
Y01419D01*
X0168Y014D02*
X01719D01*
X017Y0138D02*
Y01419D01*
X0178Y014D02*
X01819D01*
X018Y0138D02*
Y01419D01*
X0188Y014D02*
X01919D01*
X019Y0138D02*
Y01419D01*
X0198Y014D02*
X02019D01*
X02Y0138D02*
Y01419D01*
X0208Y014D02*
X02119D01*
X021Y0138D02*
Y01419D01*
X0218Y014D02*
X02219D01*
X022Y0138D02*
Y01419D01*
X0228Y014D02*
X02319D01*
X023Y0138D02*
Y01419D01*
X0238Y014D02*
X02419D01*
X024Y0138D02*
Y01419D01*
X0248Y014D02*
X02519D01*
X025Y0138D02*
Y01419D01*
X0058Y014D02*
X00619D01*
X006Y0138D02*
Y01419D01*
X0068Y014D02*
X00719D01*
X007Y0138D02*
Y01419D01*
X0078Y014D02*
X00819D01*
X008Y0138D02*
Y01419D01*
X0088Y014D02*
X00919D01*
X009Y0138D02*
Y01419D01*
X0098Y014D02*
X01019D01*
X01Y0138D02*
Y01419D01*
X0108Y014D02*
X01119D01*
X011Y0138D02*
Y01419D01*
X0118Y014D02*
X01219D01*
X012Y0138D02*
Y01419D01*
X0128Y014D02*
X01319D01*
X013Y0138D02*
Y01419D01*
X0138Y014D02*
X01419D01*
X014Y0138D02*
Y01419D01*
X0148Y014D02*
X01519D01*
X015Y0138D02*
Y01419D01*
X0008Y013D02*
X00119D01*
X001Y0128D02*
Y01319D01*
X0018Y013D02*
X00219D01*
X002Y0128D02*
Y01319D01*
X0028Y013D02*
X00319D01*
X003Y0128D02*
Y01319D01*
X0038Y013D02*
X00419D01*
X004Y0128D02*
Y01319D01*
X0048Y013D02*
X00519D01*
X005Y0128D02*
Y01319D01*
X0058Y013D02*
X00619D01*
X006Y0128D02*
Y01319D01*
X0168Y013D02*
X01719D01*
X017Y0128D02*
Y01319D01*
X0178Y013D02*
X01819D01*
X018Y0128D02*
Y01319D01*
X0188Y013D02*
X01919D01*
X019Y0128D02*
Y01319D01*
X0198Y013D02*
X02019D01*
X02Y0128D02*
Y01319D01*
X0208Y013D02*
X02119D01*
X021Y0128D02*
Y01319D01*
X0218Y013D02*
X02219D01*
X022Y0128D02*
Y01319D01*
X0228Y013D02*
X02319D01*
X023Y0128D02*
Y01319D01*
X0238Y013D02*
X02419D01*
X024Y0128D02*
Y01319D01*
X0248Y013D02*
X02519D01*
X025Y0128D02*
Y01319D01*
X0258Y013D02*
X02619D01*
X026Y0128D02*
Y01319D01*
X0068Y013D02*
X00719D01*
X007Y0128D02*
Y01319D01*
X0078Y013D02*
X00819D01*
X008Y0128D02*
Y01319D01*
X0088Y013D02*
X00919D01*
X009Y0128D02*
Y01319D01*
X0098Y013D02*
X01019D01*
X01Y0128D02*
Y01319D01*
X0108Y013D02*
X01119D01*
X011Y0128D02*
Y01319D01*
X0118Y013D02*
X01219D01*
X012Y0128D02*
Y01319D01*
X0128Y013D02*
X01319D01*
X013Y0128D02*
Y01319D01*
X0138Y013D02*
X01419D01*
X014Y0128D02*
Y01319D01*
X0148Y013D02*
X01519D01*
X015Y0128D02*
Y01319D01*
X0158Y013D02*
X01619D01*
X016Y0128D02*
Y01319D01*
X0008Y012D02*
X00119D01*
X001Y0118D02*
Y01219D01*
X0018Y012D02*
X00219D01*
X002Y0118D02*
Y01219D01*
X0028Y012D02*
X00319D01*
X003Y0118D02*
Y01219D01*
X0038Y012D02*
X00419D01*
X004Y0118D02*
Y01219D01*
X0148Y012D02*
X01519D01*
X015Y0118D02*
Y01219D01*
X0158Y012D02*
X01619D01*
X016Y0118D02*
Y01219D01*
X0168Y012D02*
X01719D01*
X017Y0118D02*
Y01219D01*
X0178Y012D02*
X01819D01*
X018Y0118D02*
Y01219D01*
X0188Y012D02*
X01919D01*
X019Y0118D02*
Y01219D01*
X0198Y012D02*
X02019D01*
X02Y0118D02*
Y01219D01*
X0208Y012D02*
X02119D01*
X021Y0118D02*
Y01219D01*
X0218Y012D02*
X02219D01*
X022Y0118D02*
Y01219D01*
X0228Y012D02*
X02319D01*
X023Y0118D02*
Y01219D01*
X0238Y012D02*
X02419D01*
X024Y0118D02*
Y01219D01*
X0048Y012D02*
X00519D01*
X005Y0118D02*
Y01219D01*
X0058Y012D02*
X00619D01*
X006Y0118D02*
Y01219D01*
X0068Y012D02*
X00719D01*
X007Y0118D02*
Y01219D01*
X0078Y012D02*
X00819D01*
X008Y0118D02*
Y01219D01*
X0088Y012D02*
X00919D01*
X009Y0118D02*
Y01219D01*
X0098Y012D02*
X01019D01*
X01Y0118D02*
Y01219D01*
X0108Y012D02*
X01119D01*
X011Y0118D02*
Y01219D01*
X0118Y012D02*
X01219D01*
X012Y0118D02*
Y01219D01*
X0128Y012D02*
X01319D01*
X013Y0118D02*
Y01219D01*
X0138Y012D02*
X01419D01*
X014Y0118D02*
Y01219D01*
X0008Y011D02*
X00119D01*
X001Y0108D02*
Y01119D01*
X0018Y011D02*
X00219D01*
X002Y0108D02*
Y01119D01*
X0028Y011D02*
X00319D01*
X003Y0108D02*
Y01119D01*
X0038Y011D02*
X00419D01*
X004Y0108D02*
Y01119D01*
X0148Y011D02*
X01519D01*
X015Y0108D02*
Y01119D01*
X0158Y011D02*
X01619D01*
X016Y0108D02*
Y01119D01*
X0168Y011D02*
X01719D01*
X017Y0108D02*
Y01119D01*
X0178Y011D02*
X01819D01*
X018Y0108D02*
Y01119D01*
X0188Y011D02*
X01919D01*
X019Y0108D02*
Y01119D01*
X0198Y011D02*
X02019D01*
X02Y0108D02*
Y01119D01*
X0208Y011D02*
X02119D01*
X021Y0108D02*
Y01119D01*
X0218Y011D02*
X02219D01*
X022Y0108D02*
Y01119D01*
X0228Y011D02*
X02319D01*
X023Y0108D02*
Y01119D01*
X0238Y011D02*
X02419D01*
X024Y0108D02*
Y01119D01*
X0048Y011D02*
X00519D01*
X005Y0108D02*
Y01119D01*
X0058Y011D02*
X00619D01*
X006Y0108D02*
Y01119D01*
X0068Y011D02*
X00719D01*
X007Y0108D02*
Y01119D01*
X0078Y011D02*
X00819D01*
X008Y0108D02*
Y01119D01*
X0088Y011D02*
X00919D01*
X009Y0108D02*
Y01119D01*
X0098Y011D02*
X01019D01*
X01Y0108D02*
Y01119D01*
X0108Y011D02*
X01119D01*
X011Y0108D02*
Y01119D01*
X0118Y011D02*
X01219D01*
X012Y0108D02*
Y01119D01*
X0128Y011D02*
X01319D01*
X013Y0108D02*
Y01119D01*
X0138Y011D02*
X01419D01*
X014Y0108D02*
Y01119D01*
X0008Y01D02*
X00119D01*
X001Y0098D02*
Y01019D01*
X0018Y01D02*
X00219D01*
X002Y0098D02*
Y01019D01*
X0028Y01D02*
X00319D01*
X003Y0098D02*
Y01019D01*
X0038Y01D02*
X00419D01*
X004Y0098D02*
Y01019D01*
X0148Y01D02*
X01519D01*
X015Y0098D02*
Y01019D01*
X0158Y01D02*
X01619D01*
X016Y0098D02*
Y01019D01*
X0168Y01D02*
X01719D01*
X017Y0098D02*
Y01019D01*
X0178Y01D02*
X01819D01*
X018Y0098D02*
Y01019D01*
X0188Y01D02*
X01919D01*
X019Y0098D02*
Y01019D01*
X0198Y01D02*
X02019D01*
X02Y0098D02*
Y01019D01*
X0208Y01D02*
X02119D01*
X021Y0098D02*
Y01019D01*
X0218Y01D02*
X02219D01*
X022Y0098D02*
Y01019D01*
X0228Y01D02*
X02319D01*
X023Y0098D02*
Y01019D01*
X0238Y01D02*
X02419D01*
X024Y0098D02*
Y01019D01*
X0048Y01D02*
X00519D01*
X005Y0098D02*
Y01019D01*
X0058Y01D02*
X00619D01*
X006Y0098D02*
Y01019D01*
X0068Y01D02*
X00719D01*
X007Y0098D02*
Y01019D01*
X0078Y01D02*
X00819D01*
X008Y0098D02*
Y01019D01*
X0088Y01D02*
X00919D01*
X009Y0098D02*
Y01019D01*
X0098Y01D02*
X01019D01*
X01Y0098D02*
Y01019D01*
X0108Y01D02*
X01119D01*
X011Y0098D02*
Y01019D01*
X0118Y01D02*
X01219D01*
X012Y0098D02*
Y01019D01*
X0128Y01D02*
X01319D01*
X013Y0098D02*
Y01019D01*
X0138Y01D02*
X01419D01*
X014Y0098D02*
Y01019D01*
X0008Y009D02*
X00119D01*
X001Y0088D02*
Y00919D01*
X0018Y009D02*
X00219D01*
X002Y0088D02*
Y00919D01*
X0028Y009D02*
X00319D01*
X003Y0088D02*
Y00919D01*
X0038Y009D02*
X00419D01*
X004Y0088D02*
Y00919D01*
X0048Y009D02*
X00519D01*
X005Y0088D02*
Y00919D01*
X0058Y009D02*
X00619D01*
X006Y0088D02*
Y00919D01*
X0168Y009D02*
X01719D01*
X017Y0088D02*
Y00919D01*
X0178Y009D02*
X01819D01*
X018Y0088D02*
Y00919D01*
X0188Y009D02*
X01919D01*
X019Y0088D02*
Y00919D01*
X0198Y009D02*
X02019D01*
X02Y0088D02*
Y00919D01*
X0208Y009D02*
X02119D01*
X021Y0088D02*
Y00919D01*
X0218Y009D02*
X02219D01*
X022Y0088D02*
Y00919D01*
X0228Y009D02*
X02319D01*
X023Y0088D02*
Y00919D01*
X0238Y009D02*
X02419D01*
X024Y0088D02*
Y00919D01*
X0248Y009D02*
X02519D01*
X025Y0088D02*
Y00919D01*
X0258Y009D02*
X02619D01*
X026Y0088D02*
Y00919D01*
X0068Y009D02*
X00719D01*
X007Y0088D02*
Y00919D01*
X0078Y009D02*
X00819D01*
X008Y0088D02*
Y00919D01*
X0088Y009D02*
X00919D01*
X009Y0088D02*
Y00919D01*
X0098Y009D02*
X01019D01*
X01Y0088D02*
Y00919D01*
X0108Y009D02*
X01119D01*
X011Y0088D02*
Y00919D01*
X0118Y009D02*
X01219D01*
X012Y0088D02*
Y00919D01*
X0128Y009D02*
X01319D01*
X013Y0088D02*
Y00919D01*
X0138Y009D02*
X01419D01*
X014Y0088D02*
Y00919D01*
X0148Y009D02*
X01519D01*
X015Y0088D02*
Y00919D01*
X0158Y009D02*
X01619D01*
X016Y0088D02*
Y00919D01*
X0008Y008D02*
X00119D01*
X001Y0078D02*
Y00819D01*
X0018Y008D02*
X00219D01*
X002Y0078D02*
Y00819D01*
X0028Y008D02*
X00319D01*
X003Y0078D02*
Y00819D01*
X0038Y008D02*
X00419D01*
X004Y0078D02*
Y00819D01*
X0048Y008D02*
X00519D01*
X005Y0078D02*
Y00819D01*
X0058Y008D02*
X00619D01*
X006Y0078D02*
Y00819D01*
X0168Y008D02*
X01719D01*
X017Y0078D02*
Y00819D01*
X0178Y008D02*
X01819D01*
X018Y0078D02*
Y00819D01*
X0188Y008D02*
X01919D01*
X019Y0078D02*
Y00819D01*
X0198Y008D02*
X02019D01*
X02Y0078D02*
Y00819D01*
X0208Y008D02*
X02119D01*
X021Y0078D02*
Y00819D01*
X0218Y008D02*
X02219D01*
X022Y0078D02*
Y00819D01*
X0228Y008D02*
X02319D01*
X023Y0078D02*
Y00819D01*
X0238Y008D02*
X02419D01*
X024Y0078D02*
Y00819D01*
X0248Y008D02*
X02519D01*
X025Y0078D02*
Y00819D01*
X0258Y008D02*
X02619D01*
X026Y0078D02*
Y00819D01*
X0068Y008D02*
X00719D01*
X007Y0078D02*
Y00819D01*
X0078Y008D02*
X00819D01*
X008Y0078D02*
Y00819D01*
X0088Y008D02*
X00919D01*
X009Y0078D02*
Y00819D01*
X0098Y008D02*
X01019D01*
X01Y0078D02*
Y00819D01*
X0108Y008D02*
X01119D01*
X011Y0078D02*
Y00819D01*
X0118Y008D02*
X01219D01*
X012Y0078D02*
Y00819D01*
X0128Y008D02*
X01319D01*
X013Y0078D02*
Y00819D01*
X0138Y008D02*
X01419D01*
X014Y0078D02*
Y00819D01*
X0148Y008D02*
X01519D01*
X015Y0078D02*
Y00819D01*
X0158Y008D02*
X01619D01*
X016Y0078D02*
Y00819D01*
X0008Y007D02*
X00119D01*
X001Y0068D02*
Y00719D01*
X0018Y007D02*
X00219D01*
X002Y0068D02*
Y00719D01*
X0028Y007D02*
X00319D01*
X003Y0068D02*
Y00719D01*
X0038Y007D02*
X00419D01*
X004Y0068D02*
Y00719D01*
X0048Y007D02*
X00519D01*
X005Y0068D02*
Y00719D01*
X0058Y007D02*
X00619D01*
X006Y0068D02*
Y00719D01*
X0168Y007D02*
X01719D01*
X017Y0068D02*
Y00719D01*
X0178Y007D02*
X01819D01*
X018Y0068D02*
Y00719D01*
X0188Y007D02*
X01919D01*
X019Y0068D02*
Y00719D01*
X0198Y007D02*
X02019D01*
X02Y0068D02*
Y00719D01*
X0208Y007D02*
X02119D01*
X021Y0068D02*
Y00719D01*
X0218Y007D02*
X02219D01*
X022Y0068D02*
Y00719D01*
X0228Y007D02*
X02319D01*
X023Y0068D02*
Y00719D01*
X0238Y007D02*
X02419D01*
X024Y0068D02*
Y00719D01*
X0248Y007D02*
X02519D01*
X025Y0068D02*
Y00719D01*
X0258Y007D02*
X02619D01*
X026Y0068D02*
Y00719D01*
X0068Y007D02*
X00719D01*
X007Y0068D02*
Y00719D01*
X0078Y007D02*
X00819D01*
X008Y0068D02*
Y00719D01*
X0088Y007D02*
X00919D01*
X009Y0068D02*
Y00719D01*
X0098Y007D02*
X01019D01*
X01Y0068D02*
Y00719D01*
X0108Y007D02*
X01119D01*
X011Y0068D02*
Y00719D01*
X0118Y007D02*
X01219D01*
X012Y0068D02*
Y00719D01*
X0128Y007D02*
X01319D01*
X013Y0068D02*
Y00719D01*
X0138Y007D02*
X01419D01*
X014Y0068D02*
Y00719D01*
X0148Y007D02*
X01519D01*
X015Y0068D02*
Y00719D01*
X0158Y007D02*
X01619D01*
X016Y0068D02*
Y00719D01*
X0008Y006D02*
X00119D01*
X001Y0058D02*
Y00619D01*
X0018Y006D02*
X00219D01*
X002Y0058D02*
Y00619D01*
X0028Y006D02*
X00319D01*
X003Y0058D02*
Y00619D01*
X0038Y006D02*
X00419D01*
X004Y0058D02*
Y00619D01*
X0048Y006D02*
X00519D01*
X005Y0058D02*
Y00619D01*
X0058Y006D02*
X00619D01*
X006Y0058D02*
Y00619D01*
X0168Y006D02*
X01719D01*
X017Y0058D02*
Y00619D01*
X0178Y006D02*
X01819D01*
X018Y0058D02*
Y00619D01*
X0188Y006D02*
X01919D01*
X019Y0058D02*
Y00619D01*
X0198Y006D02*
X02019D01*
X02Y0058D02*
Y00619D01*
X0208Y006D02*
X02119D01*
X021Y0058D02*
Y00619D01*
X0218Y006D02*
X02219D01*
X022Y0058D02*
Y00619D01*
X0228Y006D02*
X02319D01*
X023Y0058D02*
Y00619D01*
X0238Y006D02*
X02419D01*
X024Y0058D02*
Y00619D01*
X0248Y006D02*
X02519D01*
X025Y0058D02*
Y00619D01*
X0258Y006D02*
X02619D01*
X026Y0058D02*
Y00619D01*
X0068Y006D02*
X00719D01*
X007Y0058D02*
Y00619D01*
X0078Y006D02*
X00819D01*
X008Y0058D02*
Y00619D01*
X0088Y006D02*
X00919D01*
X009Y0058D02*
Y00619D01*
X0098Y006D02*
X01019D01*
X01Y0058D02*
Y00619D01*
X0108Y006D02*
X01119D01*
X011Y0058D02*
Y00619D01*
X0118Y006D02*
X01219D01*
X012Y0058D02*
Y00619D01*
X0128Y006D02*
X01319D01*
X013Y0058D02*
Y00619D01*
X0138Y006D02*
X01419D01*
X014Y0058D02*
Y00619D01*
X0148Y006D02*
X01519D01*
X015Y0058D02*
Y00619D01*
X0158Y006D02*
X01619D01*
X016Y0058D02*
Y00619D01*
X0008Y005D02*
X00119D01*
X001Y0048D02*
Y00519D01*
X0018Y005D02*
X00219D01*
X002Y0048D02*
Y00519D01*
X0028Y005D02*
X00319D01*
X003Y0048D02*
Y00519D01*
X0038Y005D02*
X00419D01*
X004Y0048D02*
Y00519D01*
X0048Y005D02*
X00519D01*
X005Y0048D02*
Y00519D01*
X0058Y005D02*
X00619D01*
X006Y0048D02*
Y00519D01*
X0168Y005D02*
X01719D01*
X017Y0048D02*
Y00519D01*
X0178Y005D02*
X01819D01*
X018Y0048D02*
Y00519D01*
X0188Y005D02*
X01919D01*
X019Y0048D02*
Y00519D01*
X0198Y005D02*
X02019D01*
X02Y0048D02*
Y00519D01*
X0208Y005D02*
X02119D01*
X021Y0048D02*
Y00519D01*
X0218Y005D02*
X02219D01*
X022Y0048D02*
Y00519D01*
X0228Y005D02*
X02319D01*
X023Y0048D02*
Y00519D01*
X0238Y005D02*
X02419D01*
X024Y0048D02*
Y00519D01*
X0248Y005D02*
X02519D01*
X025Y0048D02*
Y00519D01*
X0258Y005D02*
X02619D01*
X026Y0048D02*
Y00519D01*
X0068Y005D02*
X00719D01*
X007Y0048D02*
Y00519D01*
X0078Y005D02*
X00819D01*
X008Y0048D02*
Y00519D01*
X0088Y005D02*
X00919D01*
X009Y0048D02*
Y00519D01*
X0098Y005D02*
X01019D01*
X01Y0048D02*
Y00519D01*
X0108Y005D02*
X01119D01*
X011Y0048D02*
Y00519D01*
X0118Y005D02*
X01219D01*
X012Y0048D02*
Y00519D01*
X0128Y005D02*
X01319D01*
X013Y0048D02*
Y00519D01*
X0138Y005D02*
X01419D01*
X014Y0048D02*
Y00519D01*
X0148Y005D02*
X01519D01*
X015Y0048D02*
Y00519D01*
X0158Y005D02*
X01619D01*
X016Y0048D02*
Y00519D01*
X0068Y004D02*
X00719D01*
X007Y0038D02*
Y00419D01*
X0078Y004D02*
X00819D01*
X008Y0038D02*
Y00419D01*
X0088Y004D02*
X00919D01*
X009Y0038D02*
Y00419D01*
X0098Y004D02*
X01019D01*
X01Y0038D02*
Y00419D01*
X0108Y004D02*
X01119D01*
X011Y0038D02*
Y00419D01*
X0118Y004D02*
X01219D01*
X012Y0038D02*
Y00419D01*
X0128Y004D02*
X01319D01*
X013Y0038D02*
Y00419D01*
X0138Y004D02*
X01419D01*
X014Y0038D02*
Y00419D01*
X0148Y004D02*
X01519D01*
X015Y0038D02*
Y00419D01*
X0158Y004D02*
X01619D01*
X016Y0038D02*
Y00419D01*
X0168Y004D02*
X01719D01*
X017Y0038D02*
Y00419D01*
X0178Y004D02*
X01819D01*
X018Y0038D02*
Y00419D01*
X0188Y004D02*
X01919D01*
X019Y0038D02*
Y00419D01*
X0198Y004D02*
X02019D01*
X02Y0038D02*
Y00419D01*
X0208Y004D02*
X02119D01*
X021Y0038D02*
Y00419D01*
X0218Y004D02*
X02219D01*
X022Y0038D02*
Y00419D01*
X0228Y004D02*
X02319D01*
X023Y0038D02*
Y00419D01*
X0238Y004D02*
X02419D01*
X024Y0038D02*
Y00419D01*
X0248Y004D02*
X02519D01*
X025Y0038D02*
Y00419D01*
X0258Y004D02*
X02619D01*
X026Y0038D02*
Y00419D01*
X0248Y003D02*
X02519D01*
X025Y0028D02*
Y00319D01*
X0238Y003D02*
X02419D01*
X024Y0028D02*
Y00319D01*
X0228Y003D02*
X02319D01*
X023Y0028D02*
Y00319D01*
X0218Y003D02*
X02219D01*
X022Y0028D02*
Y00319D01*
X0208Y003D02*
X02119D01*
X021Y0028D02*
Y00319D01*
X0198Y003D02*
X02019D01*
X02Y0028D02*
Y00319D01*
X0248Y001D02*
X02519D01*
X025Y0008D02*
Y00119D01*
X0238Y001D02*
X02419D01*
X024Y0008D02*
Y00119D01*
X0228Y001D02*
X02319D01*
X023Y0008D02*
Y00119D01*
X0218Y001D02*
X02219D01*
X022Y0008D02*
Y00119D01*
X0208Y001D02*
X02119D01*
X021Y0008D02*
Y00119D01*
X0198Y001D02*
X02019D01*
X02Y0008D02*
Y00119D01*
X0008Y004D02*
X00119D01*
X001Y0038D02*
Y00419D01*
X0018Y004D02*
X00219D01*
X002Y0038D02*
Y00419D01*
X0028Y004D02*
X00319D01*
X003Y0038D02*
Y00419D01*
X0038Y004D02*
X00419D01*
X004Y0038D02*
Y00419D01*
X0048Y004D02*
X00519D01*
X005Y0038D02*
Y00419D01*
X0058Y004D02*
X00619D01*
X006Y0038D02*
Y00419D01*
X02537Y003D02*
X02662D01*
X026Y00237D02*
Y00362D01*
X02537Y014D02*
X02662D01*
X026Y01337D02*
Y01462D01*
X0055Y00037D02*
Y00162D01*
X00537Y02D02*
X00662D01*
X006Y01937D02*
Y02062D01*
X00487Y001D02*
X00612D01*
M02*