%FSTAX23Y23*%
%MOIN*%
%SFA1B1*%

%IPPOS*%
%ADD25C,0.039370*%
%ADD26C,0.039370*%
%ADD27C,0.035430*%
%ADD28C,0.125980*%
%LN451PCB-COM_Arduino_ProtoShield_Board_v1_pth_drill*%
%LPD*%
G54D25*
X011Y002D03*
G54D26*
X0164Y018D03*
X0154D03*
X0144D03*
X0134D03*
X0124D03*
X0114D03*
X0104D03*
X0094D03*
X0084D03*
X0074D03*
X0164Y02D03*
X0154D03*
X0144D03*
X0134D03*
X0124D03*
X0114D03*
X0104D03*
X0094D03*
X0084D03*
X0074D03*
X001Y001D03*
X002D03*
X003D03*
X004D03*
X007D03*
X008D03*
X009D03*
X01D03*
X001Y02D03*
X002D03*
X003D03*
X004D03*
X005D03*
X001Y019D03*
X002D03*
X003D03*
X004D03*
X005D03*
X006D03*
X001Y018D03*
X002D03*
X003D03*
X004D03*
X005D03*
X006D03*
X001Y002D03*
X002D03*
X003D03*
X004D03*
X005D03*
X006D03*
X007D03*
X008D03*
X009D03*
X01D03*
X001Y003D03*
X002D03*
X003D03*
X004D03*
X005D03*
X006D03*
X007D03*
X008D03*
X009D03*
X01D03*
X006Y017D03*
X007D03*
X008D03*
X009D03*
X01D03*
X011D03*
X012D03*
X013D03*
X014D03*
X015D03*
X016D03*
X017D03*
X018D03*
X019D03*
X02D03*
X021D03*
X022D03*
X023D03*
X024D03*
X025D03*
X001D03*
X002D03*
X003D03*
X004D03*
X005D03*
X023Y018D03*
X024D03*
X018D03*
X025D03*
X021D03*
X02D03*
X019D03*
X022D03*
X023Y02D03*
X024D03*
X018D03*
X025D03*
X021D03*
X02D03*
X019D03*
X022D03*
X015Y003D03*
X012D03*
X013D03*
X014D03*
X018D03*
X011D03*
X017D03*
X016D03*
X015Y001D03*
X012D03*
X013D03*
X014D03*
X018D03*
X011D03*
X017D03*
X016D03*
X001Y016D03*
X002D03*
X003D03*
X004D03*
X005D03*
X016D03*
X017D03*
X018D03*
X019D03*
X02D03*
X021D03*
X022D03*
X023D03*
X024D03*
X025D03*
X006D03*
X007D03*
X008D03*
X009D03*
X01D03*
X011D03*
X012D03*
X013D03*
X014D03*
X015D03*
X001Y015D03*
X002D03*
X003D03*
X004D03*
X005D03*
X006D03*
X017D03*
X018D03*
X019D03*
X02D03*
X021D03*
X022D03*
X023D03*
X024D03*
X025D03*
X026D03*
X007D03*
X008D03*
X009D03*
X01D03*
X011D03*
X012D03*
X013D03*
X014D03*
X015D03*
X016D03*
X001Y014D03*
X002D03*
X003D03*
X004D03*
X005D03*
X016D03*
X017D03*
X018D03*
X019D03*
X02D03*
X021D03*
X022D03*
X023D03*
X024D03*
X025D03*
X006D03*
X007D03*
X008D03*
X009D03*
X01D03*
X011D03*
X012D03*
X013D03*
X014D03*
X015D03*
X001Y013D03*
X002D03*
X003D03*
X004D03*
X005D03*
X006D03*
X017D03*
X018D03*
X019D03*
X02D03*
X021D03*
X022D03*
X023D03*
X024D03*
X025D03*
X026D03*
X007D03*
X008D03*
X009D03*
X01D03*
X011D03*
X012D03*
X013D03*
X014D03*
X015D03*
X016D03*
X001Y012D03*
X002D03*
X003D03*
X004D03*
X015D03*
X016D03*
X017D03*
X018D03*
X019D03*
X02D03*
X021D03*
X022D03*
X023D03*
X024D03*
X005D03*
X006D03*
X007D03*
X008D03*
X009D03*
X01D03*
X011D03*
X012D03*
X013D03*
X014D03*
X001Y011D03*
X002D03*
X003D03*
X004D03*
X015D03*
X016D03*
X017D03*
X018D03*
X019D03*
X02D03*
X021D03*
X022D03*
X023D03*
X024D03*
X005D03*
X006D03*
X007D03*
X008D03*
X009D03*
X01D03*
X011D03*
X012D03*
X013D03*
X014D03*
X001Y01D03*
X002D03*
X003D03*
X004D03*
X015D03*
X016D03*
X017D03*
X018D03*
X019D03*
X02D03*
X021D03*
X022D03*
X023D03*
X024D03*
X005D03*
X006D03*
X007D03*
X008D03*
X009D03*
X01D03*
X011D03*
X012D03*
X013D03*
X014D03*
X001Y009D03*
X002D03*
X003D03*
X004D03*
X005D03*
X006D03*
X017D03*
X018D03*
X019D03*
X02D03*
X021D03*
X022D03*
X023D03*
X024D03*
X025D03*
X026D03*
X007D03*
X008D03*
X009D03*
X01D03*
X011D03*
X012D03*
X013D03*
X014D03*
X015D03*
X016D03*
X001Y008D03*
X002D03*
X003D03*
X004D03*
X005D03*
X006D03*
X017D03*
X018D03*
X019D03*
X02D03*
X021D03*
X022D03*
X023D03*
X024D03*
X025D03*
X026D03*
X007D03*
X008D03*
X009D03*
X01D03*
X011D03*
X012D03*
X013D03*
X014D03*
X015D03*
X016D03*
X001Y007D03*
X002D03*
X003D03*
X004D03*
X005D03*
X006D03*
X017D03*
X018D03*
X019D03*
X02D03*
X021D03*
X022D03*
X023D03*
X024D03*
X025D03*
X026D03*
X007D03*
X008D03*
X009D03*
X01D03*
X011D03*
X012D03*
X013D03*
X014D03*
X015D03*
X016D03*
X001Y006D03*
X002D03*
X003D03*
X004D03*
X005D03*
X006D03*
X017D03*
X018D03*
X019D03*
X02D03*
X021D03*
X022D03*
X023D03*
X024D03*
X025D03*
X026D03*
X007D03*
X008D03*
X009D03*
X01D03*
X011D03*
X012D03*
X013D03*
X014D03*
X015D03*
X016D03*
X001Y005D03*
X002D03*
X003D03*
X004D03*
X005D03*
X006D03*
X017D03*
X018D03*
X019D03*
X02D03*
X021D03*
X022D03*
X023D03*
X024D03*
X025D03*
X026D03*
X007D03*
X008D03*
X009D03*
X01D03*
X011D03*
X012D03*
X013D03*
X014D03*
X015D03*
X016D03*
X007Y004D03*
X008D03*
X009D03*
X01D03*
X011D03*
X012D03*
X013D03*
X014D03*
X015D03*
X016D03*
X017D03*
X018D03*
X019D03*
X02D03*
X021D03*
X022D03*
X023D03*
X024D03*
X025D03*
X026D03*
X025Y003D03*
X024D03*
X023D03*
X022D03*
X021D03*
X02D03*
X025Y001D03*
X024D03*
X023D03*
X022D03*
X021D03*
X02D03*
X001Y004D03*
X002D03*
X003D03*
X004D03*
X005D03*
X006D03*
G54D27*
X02605Y00998D03*
X02505D03*
X02605Y01098D03*
X02505D03*
X02605Y01198D03*
X02505D03*
G54D28*
X026Y003D03*
Y014D03*
X0055Y001D03*
X006Y02D03*
M02*